<?xml version="1.0" encoding="UTF-8" standalone="no"?>
<!-- Creator: CorelDRAW 2020 (64-Bit) -->

<svg
   xml:space="preserve"
   width="521.2594"
   height="521.2594"
   version="1.1"
   style="clip-rule:evenodd;fill-rule:evenodd;image-rendering:optimizeQuality;shape-rendering:geometricPrecision;text-rendering:geometricPrecision"
   viewBox="0 0 521.2594 521.2594"
   id="svg197"
   sodipodi:docname="wmf-logo-white.svg"
   inkscape:version="1.2 (1:1.2.1+202207142221+cd75a1ee6d)"
   xmlns:inkscape="http://www.inkscape.org/namespaces/inkscape"
   xmlns:sodipodi="http://sodipodi.sourceforge.net/DTD/sodipodi-0.dtd"
   xmlns="http://www.w3.org/2000/svg"
   xmlns:svg="http://www.w3.org/2000/svg"><sodipodi:namedview
   id="namedview199"
   pagecolor="#ffffff"
   bordercolor="#666666"
   borderopacity="1.0"
   inkscape:showpageshadow="2"
   inkscape:pageopacity="0.0"
   inkscape:pagecheckerboard="true"
   inkscape:deskcolor="#d1d1d1"
   showgrid="false"
   inkscape:zoom="2.0529108"
   inkscape:cx="254.2731"
   inkscape:cy="259.8749"
   inkscape:window-width="2560"
   inkscape:window-height="1361"
   inkscape:window-x="1920"
   inkscape:window-y="0"
   inkscape:window-maximized="1"
   inkscape:current-layer="Plan_x0020_1" />
 <defs
   id="defs184">
  <style
   type="text/css"
   id="style182">
   <![CDATA[
    .fil2 {fill:#00CCFF}
    .fil0 {fill:white}
    .fil1 {fill:#C3D342;fill-rule:nonzero}
   ]]>
  </style>
 
   
   
  
    
    
   </defs>
 <g
   id="Plan_x0020_1"
   inkscape:label="Plan 1"
   inkscape:groupmode="layer"
   transform="translate(4.0582886,4.5054016)">
  <metadata
   id="CorelCorpID_0Corel-Layer" />
  <g
   id="g5434"
   transform="rotate(-15,256.57141,256.1243)"><circle
     style="fill:#ffffff;fill-opacity:1;stroke:none;stroke-width:18.3106;stroke-miterlimit:0;stroke-dasharray:none"
     id="path5418"
     cx="256.57141"
     cy="256.1243"
     r="260.6297" /><g
     id="g5312"
     transform="matrix(0.99686855,0,0,1.0369445,6.6780821,-9.4834568)"><path
       id="path4457"
       style="fill:#144142;fill-opacity:1;stroke:none;stroke-width:1.03969;stroke-miterlimit:0;stroke-dasharray:none"
       d="m 250.60587,24.13486 v 1.918698 c -1.57489,2.184436 -3.55854,5.72053 -5.52506,10.719257 -4.41978,11.23425 -8.72453,28.544729 -12.30317,50.050611 -1.95882,11.771985 -3.69533,24.917474 -5.21768,39.018094 h 60.16489 c -0.0463,-16.44905 1.0269,-32.466653 2.99356,-47.48386 2.36494,-18.05845 5.98009,-34.669195 10.51173,-49.024695 -16.32845,-3.345493 -33.23929,-5.198105 -50.62427,-5.198105 z m -24.39683,3.445825 c -28.59936,8.015465 -54.92236,29.891984 -75.82578,62.641578 -6.89267,10.798867 -13.12122,22.745847 -18.59375,35.619257 h 74.32802 c 1.59506,-15.01469 3.42731,-29.064439 5.52507,-41.670988 3.68848,-22.166456 8.03619,-40.200926 13.22531,-53.390712 0.4392,-1.116389 0.89083,-2.150668 1.34113,-3.199135 z m -56.0534,9.763824 C 121.1763,53.94259 79.619047,85.348798 50.939881,125.84152 H 110.20024 C 116.6668,109.54728 124.30544,94.426272 133.00338,80.799106 143.7847,63.907902 156.2865,49.188022 170.15564,37.344509 Z M 38.609309,145.24387 C 21.413851,175.5312 10.914819,209.82716 9.3413312,246.38275 H 86.655076 c 0.894541,-36.193 6.740641,-70.40794 16.612404,-101.13888 z m 85.767761,0 c -10.31746,30.22405 -16.59903,64.5845 -17.55608,101.13888 h 93.02749 c 0.2401,-36.31708 1.78498,-70.55865 4.40713,-101.13888 z m 101.29552,0 c -2.64376,30.39848 -4.21847,64.72279 -4.46391,101.13888 h 91.74509 C 297.7616,214.88742 290.35043,179.60884 288.322,145.24387 Z M 9.3413312,265.90649 c 1.5742158,36.57251 12.0836918,70.88244 29.2934298,101.18 h 64.646419 c -9.879777,-30.74158 -15.731162,-64.97075 -16.626104,-101.18 z m 97.4796588,0 c 0.95748,36.57081 7.24408,70.94609 17.56979,101.18 h 79.86679 c -2.62424,-30.59046 -4.16888,-64.84691 -4.40909,-101.18 z m 114.38769,0 c 0.24555,36.43157 1.82212,70.77149 4.46782,101.18 h 119.79529 c 0.8525,-35.29452 -4.75125,-70.99218 -22.02783,-101.18 z M 50.908556,386.40269 c 28.68014,40.51442 70.249694,71.93786 119.247084,88.54204 C 156.2865,463.10121 143.7847,448.38137 133.00338,431.49013 124.2974,417.8504 116.65294,402.7142 110.18262,386.40269 Z m 80.861374,0 c 5.47709,12.89055 11.71265,24.85288 18.61333,35.66429 20.90342,32.74955 47.22642,54.62612 75.82578,62.64157 -0.4503,-1.04841 -0.90193,-2.08273 -1.34113,-3.19913 -5.18912,-13.1898 -9.53683,-31.22423 -13.22531,-53.39071 -2.09983,-12.61903 -3.93489,-26.68433 -5.53094,-41.71602 z m 95.78611,0 c 1.52345,14.11785 3.26072,27.28073 5.2216,39.06508 3.57864,21.5059 7.88339,38.81446 12.30317,50.04865 1.96652,4.99875 3.95017,8.53481 5.52506,10.71926 v 1.9187 c 26.2544,0 51.46843,-4.10195 75.10529,-11.52198 4.04997,-12.8597 8.10418,-27.29918 11.49848,-43.07281 3.22342,-14.97956 5.76335,-30.9072 7.16967,-47.1569 z" /><path
       id="path4435"
       style="fill:#536668;fill-opacity:1;stroke:none;stroke-width:1.03969;stroke-miterlimit:0;stroke-dasharray:none"
       d="m 334.35117,38.536843 c -3.64291,12.390943 -6.75477,26.519432 -8.78489,42.021446 -7.13475,54.480051 -1.74185,123.073791 28.84703,173.724411 33.90422,56.1402 29.49751,126.66684 17.40925,182.84214 -1.69452,7.87472 -3.56705,15.3929 -5.50549,22.6563 16.75855,-8.7998 32.29571,-19.46165 46.33852,-31.67418 h -16.95111 c 1.19991,-6.17544 2.27018,-12.50719 3.21872,-18.94225 h 33.14453 c 10.49727,-11.47403 19.82859,-23.94815 27.82504,-37.25994 h -57.4004 c 0.25303,-6.28646 0.29265,-12.60724 0.139,-18.94421 h 67.45595 c 5.59779,-11.69261 10.20989,-23.90611 13.74023,-36.54924 H 399.0622 c -1.12833,-6.36848 -2.49527,-12.69621 -4.22896,-18.94225 h 93.41906 c 2.26887,-12.12642 3.53693,-24.5828 3.763,-37.28539 H 379.84977 c -1.08592,-1.98237 -2.2062,-3.95209 -3.38317,-5.90098 -2.54648,-4.21659 -4.85547,-8.59645 -7.06003,-13.04323 h 122.14667 c -0.8796,-13.32843 -2.8947,-26.35801 -6.01844,-38.9809 H 354.7207 c -1.69981,-6.23594 -3.11927,-12.5691 -4.35623,-18.94421 h 129.56499 c -4.67248,-13.59108 -10.59428,-26.63679 -17.67748,-38.98481 H 345.45809 c -0.38896,-6.3548 -0.5895,-12.67768 -0.61477,-18.94225 H 450.06433 C 440.08843,111.37288 428.55789,98.467036 415.6981,86.893909 h -68.80491 c 0.23515,-2.119133 0.454,-4.25584 0.72637,-6.33562 0.56589,-4.321126 1.23384,-8.506837 1.95589,-12.606629 h 42.20353 C 374.25612,55.811401 354.97746,45.855134 334.35117,38.536843 Z" /></g></g>
 </g>
</svg>
