<?xml version="1.0" encoding="UTF-8" standalone="no"?>
<!-- Created with Inkscape (http://www.inkscape.org/) -->

<svg
   version="1.1"
   id="svg2"
   width="221.03986"
   height="324.06769"
   viewBox="0 0 221.03985 324.06768"
   sodipodi:docname="i18next.svg"
   inkscape:version="1.2 (1:1.2.1+202207142221+cd75a1ee6d)"
   xmlns:inkscape="http://www.inkscape.org/namespaces/inkscape"
   xmlns:sodipodi="http://sodipodi.sourceforge.net/DTD/sodipodi-0.dtd"
   xmlns="http://www.w3.org/2000/svg"
   xmlns:svg="http://www.w3.org/2000/svg">
  <defs
     id="defs6" />
  <sodipodi:namedview
     id="namedview4"
     pagecolor="#ffffff"
     bordercolor="#666666"
     borderopacity="1.0"
     inkscape:showpageshadow="2"
     inkscape:pageopacity="0.0"
     inkscape:pagecheckerboard="0"
     inkscape:deskcolor="#d1d1d1"
     showgrid="false"
     inkscape:zoom="2.923828"
     inkscape:cx="17.613895"
     inkscape:cy="162.62926"
     inkscape:window-width="2560"
     inkscape:window-height="1361"
     inkscape:window-x="1920"
     inkscape:window-y="0"
     inkscape:window-maximized="1"
     inkscape:current-layer="g8" />
  <g
     inkscape:groupmode="layer"
     inkscape:label="Image"
     id="g8"
     transform="translate(-133.81187,-8.6328249)">
    <g
       id="g1908">
      <path
         style="fill:#004d40;fill-opacity:1;stroke:none;stroke-width:1.33333"
         d="m 344.70558,106.42026 c -6.07333,-16.458673 -18.824,-29.668673 -36,-34.280806 -4.32933,-1.1624 -13.89867,-3.869867 -17.296,0.418666 -2.76533,3.490267 -1.37067,11.033734 -1.37067,15.195467 0.001,29.833333 34.21867,29.116673 54.66667,18.666673"
         id="path1887" />
      <path
         style="fill:#004d40;fill-opacity:1;stroke:none;stroke-width:1.33333"
         d="m 146.03891,106.42026 c 19.70694,11.44786 54.6556,9.92053 54.66667,-18.666673 0.002,-4.1608 1.3936,-11.706133 -1.3704,-15.195467 -3.41627,-4.313066 -12.91507,-1.5216 -17.29627,-0.489733 -16.99159,4.002133 -31.67813,17.2084 -36,34.351873"
         id="path1885" />
      <path
         style="fill:#078678;stroke:none;stroke-width:1.33333"
         d="m 207.37225,43.753587 c 0,18.626267 3.12533,40.4 -0.50534,58.666673 -2.61066,13.13786 -9.99786,26.2572 -14.96173,38.66666 -10.48427,26.20934 -21.16907,52.32534 -31.286,78.66667 -9.22066,24.008 -30.86733,56.25467 -26.14093,82.66667 3.13666,17.52933 23.63227,26.872 39.56066,28.948 21.13414,2.75333 44.02,0.38533 65.33334,0.38533 24.53866,0 50.25466,2.21467 74.66666,-0.228 14.85201,-1.48533 32.73734,-9.03866 38.50801,-23.772 9.84933,-25.14666 -14.46934,-64.73733 -24.02667,-88 -11.016,-26.81467 -21.32134,-54.13067 -31.38934,-81.33333 -4.16,-11.2396 -10.916,-22.90334 -13.13466,-34.66667 -3.56267,-18.879203 -0.624,-40.79627 -0.624,-60.000003 h -76"
         id="path1883" />
      <rect
         style="fill:#004d40;fill-opacity:1;stroke-width:25.2577;stroke-miterlimit:0"
         id="rect445"
         width="105.24495"
         height="29.505384"
         x="191.6302"
         y="8.6328249"
         ry="14.752692" />
      <path
         style="fill:#ffffff;stroke:none;stroke-width:1.33333"
         d="m 220.70558,209.46692 c 22.26533,-2.63466 46.208,-0.576 68,4.072 7.05733,1.50534 16.672,1.37334 22.10933,6.77334 6.06134,6.02 7.99334,17.12133 11.34534,24.77466 9.56,21.82667 27.28267,55.25467 -4.12134,67.91201 -3.82933,1.544 -7.89466,3.21733 -12,3.808 -31.12,4.476 -65.87066,0.28 -97.33333,0.28 -16.5548,0 -32.71667,1.372 -46.64613,-9.392 -21.902,-16.924 -2.3792,-44.48934 5.23053,-63.94134 2.84747,-7.27867 5.8628,-20.812 12.3816,-25.524 9.45213,-6.832 29.662,-7.416 41.034,-8.76267"
         id="path1893" />
      <path
         style="fill:#004d40;fill-opacity:1;stroke:none;stroke-width:1.33333"
         d="m 270.03891,229.79226 c -24.90266,5.67866 -8.524,26.76666 10.66667,22.60266 23.72933,-5.148 7.516,-26.748 -10.66667,-22.60266 z"
         id="path1897" />
      <path
         style="fill:#004d40;fill-opacity:1;stroke:none;stroke-width:1.33333"
         d="m 202.03891,229.79226 c -25.23893,5.75333 -8.54293,26.772 10.66667,22.60266 23.54,-5.108 7.52,-26.748 -10.66667,-22.60266"
         id="path1895" />
      <path
         style="fill:#ffffff;stroke:none;stroke-width:1.33333"
         d="m 212.70691,160.38559 c 17.164,-3.852 21.576,26.50667 5.32667,30.784 -18.458,4.86 -22.6268,-26.90267 -5.32667,-30.784"
         id="path1891" />
      <path
         style="fill:#ffffff;stroke:none;stroke-width:1.33333"
         d="m 260.70691,142.99892 c 21.06534,-4.616 25.63734,33.40267 5.332,37.324 -21.044,4.064 -25.22266,-32.964 -5.332,-37.324"
         id="path1889" />
    </g>
  </g>
</svg>
