<?xml version="1.0" encoding="UTF-8" standalone="no"?>
<!-- Created with Inkscape (http://www.inkscape.org/) -->

<svg
   width="1024"
   height="1024"
   viewBox="0 0 270.93333 270.93333"
   version="1.1"
   id="svg5"
   xml:space="preserve"
   inkscape:version="1.2 (1:1.2+202206011327+fc4e4096c5)"
   sodipodi:docname="Mern Stack.svg"
   inkscape:export-filename="Mern Stack.png"
   inkscape:export-xdpi="96"
   inkscape:export-ydpi="96"
   xmlns:inkscape="http://www.inkscape.org/namespaces/inkscape"
   xmlns:sodipodi="http://sodipodi.sourceforge.net/DTD/sodipodi-0.dtd"
   xmlns="http://www.w3.org/2000/svg"
   xmlns:svg="http://www.w3.org/2000/svg"><sodipodi:namedview
     id="namedview7"
     pagecolor="#ffffff"
     bordercolor="#666666"
     borderopacity="1.0"
     inkscape:showpageshadow="2"
     inkscape:pageopacity="0.0"
     inkscape:pagecheckerboard="0"
     inkscape:deskcolor="#d1d1d1"
     inkscape:document-units="px"
     showgrid="false"
     showborder="false"
     inkscape:zoom="0.88907127"
     inkscape:cx="332.93169"
     inkscape:cy="564.07176"
     inkscape:window-width="2560"
     inkscape:window-height="1361"
     inkscape:window-x="1920"
     inkscape:window-y="0"
     inkscape:window-maximized="1"
     inkscape:current-layer="layer1" /><defs
     id="defs2"><clipPath
       clipPathUnits="userSpaceOnUse"
       id="clipPath18"><path
         d="m 275.945,28.6719 -29.961,9.9179 c 0,0 3.821,151.6402 -50.867,162.2582 -36.062,41.785 5.551,1784.892 136.559,5.972 0,0 -44.84,-22.515 -53.328,-60.75 -8.485,-38.261 -2.403,-117.3981 -2.403,-117.3981 z"
         id="path20"
         inkscape:connector-curvature="0" /></clipPath><linearGradient
       x1="0"
       y1="0"
       x2="1"
       y2="0"
       gradientUnits="userSpaceOnUse"
       gradientTransform="matrix(344.394,-116.194,-104.815,-309.067,77.7619,575.995)"
       spreadMethod="pad"
       id="linearGradient22"><stop
         style="stop-opacity:1;stop-color:#929669"
         offset="0"
         id="stop24" /><stop
         style="stop-opacity:1;stop-color:#929669"
         offset="0.230769"
         id="stop26" /><stop
         style="stop-opacity:1;stop-color:#fdfcf1"
         offset="1"
         id="stop28" /></linearGradient><linearGradient
       x1="0"
       y1="0"
       x2="1"
       y2="0"
       gradientUnits="userSpaceOnUse"
       gradientTransform="matrix(241.166,-936.211,-1007.33,-161.502,203.932,1135.85)"
       spreadMethod="pad"
       id="linearGradient40"><stop
         style="stop-color:#aad400;stop-opacity:1;"
         offset="0"
         id="stop42" /><stop
         style="stop-color:#7b9b00;stop-opacity:1;"
         offset="1"
         id="stop44" /></linearGradient><linearGradient
       x1="0"
       y1="0"
       x2="1"
       y2="0"
       gradientUnits="userSpaceOnUse"
       gradientTransform="matrix(422.095,95.9042,131.897,-394.11,-25.0834,595.855)"
       spreadMethod="pad"
       id="linearGradient56"><stop
         style="stop-color:#aad400;stop-opacity:1;"
         offset="0"
         id="stop58" /><stop
         style="stop-color:#d1ff13;stop-opacity:1;"
         offset="1"
         id="stop60" /></linearGradient><clipPath
       clipPathUnits="userSpaceOnUse"
       id="clipPath1181"><path
         d="m 230.742,165.523 c 0,0 -244.210816,166.598 -230.15998183,460.54301 C 14.636694,920.02 187.12099,1064.55 220.715,1090.77 c 21.71899,23.15 22.61701,32.07 24.297,54.91 15.22199,-32.7 12.69101,-488.42199 14.304,-541.688 6.25801,-207.351 -11.48402,-399.32801 -28.574,-438.469 z"
         id="path1183"
         inkscape:connector-curvature="0"
         style="stroke-width:1" /></clipPath><clipPath
       clipPathUnits="userSpaceOnUse"
       id="clipPath1488"><path
         d="m 292.09801,175.105 c 0,0 260.34298,171.46901 199.35097,527.575 -58.738,258.71799 -197.41797,343.77 -212.31998,376.24 -16.40601,22.98 -32.93001,63.71 -32.93001,63.71 l 11.074,-720.864 c 0,0 -22.90598,-220.11004 34.82502,-246.661 z"
         id="path1490"
         inkscape:connector-curvature="0"
         style="stroke-width:1" /></clipPath></defs><g
     inkscape:label="Calque 1"
     inkscape:groupmode="layer"
     id="layer1"><ellipse
       style="fill:#4d4d4d;stroke:none;stroke-width:1.08446;stroke-miterlimit:0;stroke-dasharray:none"
       id="path4980"
       cx="65.535545"
       cy="65.268021"
       rx="65.011322"
       ry="65.267937" /><ellipse
       style="fill:#37abc8;stroke:none;stroke-width:1.08446;stroke-miterlimit:0;stroke-dasharray:none"
       id="path4980-5"
       cx="65.535545"
       cy="205.6653"
       rx="65.011322"
       ry="65.267937" /><ellipse
       style="fill:#aad400;stroke:none;stroke-width:1.08446;stroke-miterlimit:0;stroke-dasharray:none"
       id="path4980-5-6"
       cx="205.38084"
       cy="205.6653"
       rx="65.011322"
       ry="65.267937" /><g
       id="g408"
       transform="matrix(5.1616127,0,0,5.1819867,132.18882,-10.555777)"><circle
         style="fill:#d35f5f;stroke:#ffffff;stroke-width:0;stroke-miterlimit:0"
         id="path188"
         cx="14.180069"
         cy="14.737014"
         r="12.7" /><text
         xml:space="preserve"
         style="font-style:normal;font-weight:normal;font-size:17.7861px;line-height:1.25;font-family:sans-serif;fill:#ffffff;fill-opacity:1;stroke:none;stroke-width:0.444652"
         x="3.4024789"
         y="19.591705"
         id="text348"><tspan
           sodipodi:role="line"
           id="tspan346"
           style="fill:#ffffff;stroke-width:0.444652"
           x="3.4024789"
           y="19.591705">ex</tspan></text></g><path
       id="ellipse6241"
       style="color:#000000;fill:#ffffff;stroke-width:0.932683"
       d="m 83.563332,217.38092 c 6.840497,-13.33814 11.222185,-26.59581 12.774398,-37.50264 0.77611,-5.45341 0.856049,-10.32515 0.07746,-14.42287 -0.77855,-4.09771 -2.511125,-7.55755 -5.413853,-9.44421 -2.902728,-1.88666 -6.430599,-1.84589 -9.972156,-0.55607 -3.541562,1.28981 -7.249316,3.80361 -11.056455,7.28697 -7.614279,6.96675 -15.622279,17.86745 -22.462769,31.2056 -6.8405,13.33814 -11.223047,26.59748 -12.775259,37.50432 -0.776111,5.45342 -0.856042,10.32515 -0.07746,14.42285 0.778549,4.09773 2.511118,7.55757 5.413848,9.44423 2.90273,1.88666 6.430602,1.84587 9.972158,0.55607 3.541557,-1.28981 7.249309,-3.80362 11.056452,-7.28699 7.61428,-6.96672 15.623131,-17.8691 22.463628,-31.20726 z m -3.836095,-2.4933 c -6.612029,12.89266 -14.388502,23.3962 -21.420242,29.82993 -3.515863,3.21686 -6.847339,5.40211 -9.625351,6.41384 -2.778013,1.01174 -4.850239,0.8737 -6.395779,-0.13083 -1.545548,-1.00454 -2.687835,-2.95582 -3.298539,-6.17007 -0.610706,-3.21428 -0.59538,-7.55488 0.121352,-12.59108 1.433463,-10.07237 5.625378,-22.90573 12.237399,-35.7984 6.61203,-12.89267 14.387649,-23.39454 21.419387,-29.82826 3.51587,-3.21687 6.84734,-5.40211 9.625353,-6.41384 2.778018,-1.01174 4.851099,-0.87539 6.396639,0.12915 1.545543,1.00454 2.68698,2.95749 3.297678,6.17176 0.610703,3.21425 0.595378,7.55486 -0.121353,12.59105 -1.43346,10.07239 -5.624515,22.90409 -12.236544,35.79675 z m 3.834994,-20.93953 c -6.8405,-13.33812 -14.848491,-24.23885 -22.462771,-31.20558 -3.807138,-3.48336 -7.513404,-5.99813 -11.054989,-7.28792 -3.541557,-1.28981 -7.070913,-1.3296 -9.973643,0.55704 -2.902729,1.88666 -4.635298,5.34652 -5.413848,9.44422 -0.778558,4.09771 -0.697133,8.96848 0.07901,14.4219 1.552204,10.90683 5.932404,24.16546 12.772913,37.5036 6.840491,13.33815 14.849971,24.23791 22.464255,31.20463 3.807141,3.48336 7.514261,5.9998 11.055833,7.2896 3.541564,1.2898 7.069428,1.33059 9.972159,-0.55608 2.902726,-1.88665 4.636783,-5.34747 5.415341,-9.44519 0.778559,-4.0977 0.696282,-8.97016 -0.07984,-14.42356 -1.552212,-10.90683 -5.933903,-24.16451 -12.774398,-37.50265 z m -3.836097,2.49332 c 6.612031,12.89266 10.803939,25.72602 12.237405,35.7984 0.716721,5.03621 0.732049,9.37681 0.121351,12.59106 -0.610694,3.21427 -1.752998,5.16556 -3.298537,6.17009 -1.545544,1.00455 -3.616278,1.1416 -6.394292,0.12986 -2.77802,-1.01172 -6.110975,-3.19601 -9.62684,-6.41288 -7.031742,-6.43372 -14.808214,-16.93727 -21.420243,-29.82993 -6.612031,-12.89266 -10.803946,-25.72602 -12.2374,-35.79841 -0.716731,-5.03617 -0.729711,-9.37609 -0.119006,-12.59035 0.610696,-3.21426 1.750644,-5.16624 3.296184,-6.17079 1.54554,-1.00454 3.618627,-1.1409 6.39664,-0.12916 2.778014,1.01174 6.108626,3.1953 9.624499,6.41216 7.031734,6.43374 14.808209,16.93727 21.420239,29.82995 z M 65.536413,182.23236 c -13.680992,0 -26.070671,2.35696 -35.237175,6.29706 -4.583234,1.97005 -8.370934,4.32605 -11.133933,7.13394 -2.763007,2.80791 -4.560024,6.22892 -4.560024,10.00223 0,3.7733 1.797017,7.19239 4.560024,10.00028 2.762999,2.8079 6.550699,5.16391 11.133924,7.13399 9.166485,3.94011 21.556173,6.29898 35.23717,6.29897 13.680992,1e-5 26.070674,-2.35886 35.237171,-6.29897 4.58324,-1.97004 8.37093,-4.32604 11.13394,-7.13395 2.763,-2.8079 4.55831,-6.22699 4.55831,-10.0003 0,-3.77331 -1.79531,-7.19431 -4.55831,-10.00222 -2.76301,-2.80788 -6.5507,-5.16389 -11.13397,-7.1339 -9.166487,-3.9401 -21.55617,-6.29704 -35.237166,-6.29704 z m 2e-6,4.98661 c 13.224061,0 25.192444,2.32982 33.657643,5.96848 4.232592,1.81933 7.579392,3.97468 9.746702,6.17722 2.16732,2.20253 3.09725,4.29184 3.09725,6.30092 0,2.00908 -0.92993,4.09645 -3.09725,6.29898 -2.16731,2.20252 -5.51411,4.35983 -9.746702,6.17915 -8.4652,3.63867 -20.433582,5.96848 -33.657643,5.96848 -13.224063,0 -25.192449,-2.32981 -33.65764,-5.96848 -4.232595,-1.81932 -7.579396,-3.97663 -9.746713,-6.17915 -2.167308,-2.20253 -3.097247,-4.2899 -3.097247,-6.29898 8e-6,-2.00908 0.929939,-4.09839 3.097247,-6.30092 2.167317,-2.20254 5.514109,-4.35789 9.746713,-6.17722 8.465191,-3.63866 20.433577,-5.96848 33.65764,-5.96848 z m 9.078783,18.44612 a 9.078885,10.220676 0 0 1 -9.078883,10.22068 9.078885,10.220676 0 0 1 -9.078888,-10.22068 9.078885,10.220676 0 0 1 9.078886,-10.22068 9.078885,10.220676 0 0 1 9.078885,10.22068 z" /><path
       id="path7955"
       d="m 217.53104,220.25188 c -8.73323,0 -10.59509,-2.44998 -11.1478,-6.40473 a 1.9742874,1.9820804 0 0 0 -1.92512,-1.7211 h -4.63711 a 1.9766295,1.9844317 0 0 0 -1.93448,2.01735 c 0,3.42808 1.19911,14.61756 19.65389,14.61756 v 0 c 5.70974,0 10.45927,-1.34021 13.73101,-3.87717 3.27175,-2.53697 5.02354,-6.22839 5.02354,-10.62753 0,-8.82885 -5.73784,-11.24589 -17.03789,-12.82591 -11.4874,-1.60353 -11.4874,-2.41942 -11.4874,-4.20634 0,-1.28612 0,-4.29804 8.30465,-4.29804 5.90881,0 9.07283,0.75004 10.08457,4.70245 a 1.9555516,1.9632706 0 0 0 1.88763,1.56827 h 4.6535 a 1.9297899,1.9374072 0 0 0 1.44266,-0.67246 2.0867024,2.0949391 0 0 0 0.49651,-1.51418 c -0.60189,-8.3586 -6.68869,-12.59785 -18.55784,-12.59785 -10.78715,0 -17.22525,4.87878 -17.22525,13.04929 0,8.95815 6.67231,11.49041 16.69597,12.53906 11.70988,1.21558 11.70988,2.98841 11.70988,4.55431 0.007,2.44057 -1.00236,5.69702 -9.73092,5.69702 z m 28.54403,-44.19828 -36.40135,-21.91808 a 8.6653188,8.6995228 0 0 0 -8.58335,0 l -36.40371,21.91573 a 8.9463562,8.9816695 0 0 0 -4.27176,7.70495 v 43.77271 a 8.9604077,8.9957764 0 0 0 4.27176,7.71201 l 9.5459,5.72288 0.0538,0.0306 c 4.81979,2.47585 6.66526,2.47585 8.80349,2.47585 7.52712,0 12.20405,-4.89056 12.20405,-12.76479 v -42.44192 a 1.9930233,2.0008902 0 0 0 -1.97195,-2.01734 h -5.24135 a 1.9930233,2.0008902 0 0 0 -1.97195,2.01734 v 42.44192 a 3.5129669,3.5268334 0 0 1 -1.60425,3.07304 c -1.38176,0.84644 -3.38885,0.66774 -5.65353,-0.50551 l -9.14777,-5.52772 a 0.25761758,0.25863445 0 0 1 -0.11242,-0.21632 V 184.3746 a 0.30914109,0.31036134 0 0 1 0.13818,-0.24924 l 35.5606,-21.86635 a 0.1920422,0.19280023 0 0 1 0.17097,0 l 35.58167,21.86635 a 0.31382507,0.3150638 0 0 1 0.1288,0.25865 v 43.14492 a 0.29977319,0.30095647 0 0 1 -0.10539,0.23512 l -35.61211,21.31383 a 0.28572132,0.28684913 0 0 1 -0.18736,0 l -9.0939,-5.42191 a 1.8267428,1.8339534 0 0 0 -1.83377,-0.0964 l -0.0796,0.0471 c -2.5106,1.49302 -3.1851,1.88096 -5.51302,2.73211 -0.37941,0.13873 -1.2717,0.47025 -1.34898,1.35666 -0.0773,0.88641 0.77051,1.51654 1.52463,1.95622 l 12.15487,7.49334 a 8.3538353,8.3868098 0 0 0 4.28581,1.19208 h 0.13583 v 0 a 8.4006753,8.4338346 0 0 0 4.17576,-1.19208 l 36.40135,-21.89693 a 8.9861697,9.0216402 0 0 0 4.27177,-7.71907 v -43.77273 a 8.9486979,8.9840204 0 0 0 -4.27177,-7.7026 z"
       style="fill:#ffffff;stroke-width:0.23466" /><g
       id="g1704"><g
         id="g14"
         transform="matrix(0.09711025,0,0,-0.09711025,41.223758,122.28882)"><g
           id="g16"
           clip-path="url(#clipPath18)"><path
             d="m 275.945,28.6719 -29.961,9.9179 c 0,0 3.821,151.6402 -50.867,162.2582 -36.062,41.785 5.551,1784.892 136.559,5.972 0,0 -44.84,-22.515 -53.328,-60.75 -8.485,-38.261 -2.403,-117.3981 -2.403,-117.3981"
             style="fill:url(#linearGradient22);fill-opacity:1;fill-rule:nonzero;stroke:none"
             id="path30"
             inkscape:connector-curvature="0" /></g></g><path
         d="m 292.098,175.105 c 0,0 260.343,171.469 199.351,527.575 -58.738,258.718 -197.418,343.77 -212.32,376.24 -16.406,22.98 -32.93,63.71 -32.93,63.71 l 11.074,-720.864 c 0,0 -22.906,-220.11 34.825,-246.661"
         style="fill:url(#linearGradient40);fill-opacity:1;fill-rule:nonzero;stroke:none"
         id="path46"
         inkscape:connector-curvature="0"
         transform="matrix(0.09711025,0,0,-0.09711025,41.223758,122.28882)"
         clip-path="url(#clipPath1488)" /><path
         d="m 230.742,165.523 c 0,0 -244.2108,166.598 -230.159969,460.543 C 14.6367,920.02 187.121,1064.55 220.715,1090.77 c 21.719,23.15 22.617,32.07 24.297,54.91 15.222,-32.7 12.691,-488.422 14.304,-541.688 6.258,-207.351 -11.484,-399.328 -28.574,-438.469"
         style="fill:url(#linearGradient56);fill-opacity:1;fill-rule:nonzero;stroke:none"
         id="path62"
         inkscape:connector-curvature="0"
         transform="matrix(0.09711025,0,0,-0.09711025,41.223758,122.28882)"
         clip-path="url(#clipPath1181)" /></g></g></svg>
