<?xml version="1.0" encoding="UTF-8" standalone="no"?>
<svg
   width="439"
   height="512"
   viewBox="0 0 439 512"
   version="1.1"
   id="svg7957"
   sodipodi:docname="NodeJS.svg"
   inkscape:version="1.2 (1:1.2+202206011327+fc4e4096c5)"
   xmlns:inkscape="http://www.inkscape.org/namespaces/inkscape"
   xmlns:sodipodi="http://sodipodi.sourceforge.net/DTD/sodipodi-0.dtd"
   xmlns="http://www.w3.org/2000/svg"
   xmlns:svg="http://www.w3.org/2000/svg"
   xmlns:rdf="http://www.w3.org/1999/02/22-rdf-syntax-ns#"
   xmlns:cc="http://creativecommons.org/ns#"
   xmlns:dc="http://purl.org/dc/elements/1.1/">
  <defs
     id="defs7961" />
  <sodipodi:namedview
     id="namedview7959"
     pagecolor="#ffffff"
     bordercolor="#666666"
     borderopacity="1.0"
     inkscape:showpageshadow="2"
     inkscape:pageopacity="0.0"
     inkscape:pagecheckerboard="0"
     inkscape:deskcolor="#d1d1d1"
     showgrid="false"
     inkscape:zoom="1.9492188"
     inkscape:cx="219.83166"
     inkscape:cy="256.25651"
     inkscape:window-width="2560"
     inkscape:window-height="1361"
     inkscape:window-x="1920"
     inkscape:window-y="0"
     inkscape:window-maximized="1"
     inkscape:current-layer="svg7957" />
  <title
     id="title7951">ionicons-v5_logos</title>
  <path
     id="path7955"
     d="m 278.68508,326.88025 c -42.61171,0 -51.69627,-11.90706 -54.39307,-31.12747 a 9.6330583,9.6330583 0 0 0 -9.39309,-8.36465 h -22.62569 a 9.6444854,9.6444854 0 0 0 -9.43879,9.80447 c 0,16.66073 5.85068,71.04238 95.89635,71.04238 v 0 c 27.85931,0 51.0335,-6.51346 66.99718,-18.84332 15.96368,-12.32985 24.51116,-30.27043 24.51116,-51.65056 0,-42.90882 -27.99643,-54.65589 -83.13227,-62.33491 -56.05,-7.7933 -56.05,-11.7585 -56.05,-20.44311 0,-6.25063 0,-20.88877 40.52055,-20.88877 28.83062,0 44.26865,3.64525 49.20516,22.85423 a 9.5416413,9.5416413 0 0 0 9.21026,7.62189 h 22.70568 a 9.4159431,9.4159431 0 0 0 7.0391,-3.26816 10.18156,10.18156 0 0 0 2.42255,-7.35906 c -2.93677,-40.6234 -32.63584,-61.22648 -90.54846,-61.22648 -52.6333,0 -84.04644,23.71126 -84.04644,63.42049 0,43.53731 32.55585,55.84431 81.46391,60.9408 57.13557,5.90782 57.13557,14.52387 57.13557,22.13432 0.0343,11.86135 -4.8908,27.68791 -47.47966,27.68791 z M 417.95876,112.07333 240.34711,5.5497608 a 42.280327,42.280327 0 0 0 -41.88038,0 L 20.843651,112.0619 A 43.651581,43.651581 0 0 0 5.9332808e-4,149.50856 V 362.24717 A 43.720143,43.720143 0 0 0 20.843651,399.72811 l 46.576921,27.81359 0.26282,0.14856 c 23.51701,12.03275 32.521578,12.03275 42.954528,12.03275 36.72675,0 59.5467,-23.7684 59.5467,-62.03781 V 171.41434 a 9.7244752,9.7244752 0 0 0 -9.62163,-9.80446 H 134.9891 a 9.7244752,9.7244752 0 0 0 -9.62163,9.80446 V 377.6852 a 17.140673,17.140673 0 0 1 -7.82757,14.93524 c -6.742,4.11376 -16.53504,3.2453 -27.585058,-2.45683 l -44.63431,-26.86515 a 1.2569827,1.2569827 0 0 1 -0.548501,-1.05129 V 152.51389 a 1.5083792,1.5083792 0 0 1 0.674199,-1.21127 L 218.95555,45.030444 a 0.93702346,0.93702346 0 0 1 0.83418,0 L 393.40189,151.30262 a 1.5312335,1.5312335 0 0 1 0.62849,1.25698 v 209.68757 a 1.4626708,1.4626708 0 0 1 -0.51422,1.14271 l -173.76071,103.5868 a 1.3941081,1.3941081 0 0 1 -0.91417,0 l -44.37149,-26.35093 a 8.91315,8.91315 0 0 0 -8.94743,-0.46851 l -0.38853,0.22854 c -12.24986,7.25622 -15.54087,9.14169 -26.89942,13.27831 -1.8512,0.6742 -6.20493,2.28542 -6.58202,6.59345 -0.3771,4.30802 3.75952,7.37049 7.43905,9.50736 l 59.30673,36.41821 a 40.760521,40.760521 0 0 0 20.91162,5.79355 h 0.66277 v 0 a 40.989063,40.989063 0 0 0 20.37455,-5.79355 L 417.95876,399.76239 a 43.845842,43.845842 0 0 0 20.84306,-37.51522 V 149.50856 a 43.663008,43.663008 0 0 0 -20.84306,-37.43523 z"
     style="fill:#aad400;stroke-width:1.14271" />
  <metadata
     id="metadata8081">
    <rdf:RDF>
      <cc:Work
         rdf:about="">
        <dc:title>ionicons-v5_logos</dc:title>
      </cc:Work>
    </rdf:RDF>
  </metadata>
</svg>
