<?xml version="1.0" encoding="UTF-8" standalone="no"?>
<!-- Created with Inkscape (http://www.inkscape.org/) -->

<svg
   width="173.37949mm"
   height="155.15327mm"
   viewBox="0 0 173.37949 155.15327"
   version="1.1"
   id="svg5"
   xml:space="preserve"
   inkscape:version="1.2 (1:1.2+202206011327+fc4e4096c5)"
   sodipodi:docname="React-Table.svg"
   xmlns:inkscape="http://www.inkscape.org/namespaces/inkscape"
   xmlns:sodipodi="http://sodipodi.sourceforge.net/DTD/sodipodi-0.dtd"
   xmlns="http://www.w3.org/2000/svg"
   xmlns:svg="http://www.w3.org/2000/svg"><sodipodi:namedview
     id="namedview7"
     pagecolor="#ffffff"
     bordercolor="#666666"
     borderopacity="1.0"
     inkscape:showpageshadow="2"
     inkscape:pageopacity="0.0"
     inkscape:pagecheckerboard="0"
     inkscape:deskcolor="#d1d1d1"
     inkscape:document-units="mm"
     showgrid="false"
     inkscape:zoom="0.88907127"
     inkscape:cx="314.373"
     inkscape:cy="318.87207"
     inkscape:window-width="2560"
     inkscape:window-height="1361"
     inkscape:window-x="1920"
     inkscape:window-y="0"
     inkscape:window-maximized="1"
     inkscape:current-layer="layer1" /><defs
     id="defs2" /><g
     inkscape:label="Calque 1"
     inkscape:groupmode="layer"
     id="layer1"
     transform="translate(-21.834705,-64.414236)"><path
       id="path1968"
       style="fill:#fed94c;fill-opacity:1;stroke-width:1.05833;stroke-miterlimit:0"
       d="m 93.993229,113.77445 -1.442289,0.84853 c -1.137579,0.66944 -1.870461,1.59865 -3.470589,4.39973 -1.115659,1.95301 -2.0283,3.63516 -2.0283,3.73776 0,0.1026 9.538293,0.18655 21.196119,0.18655 12.41851,0 21.1472,-0.13172 21.0783,-0.31781 -0.29211,-0.78901 -2.68945,-4.82455 -3.65455,-6.15157 -1.99732,-2.74631 -1.70804,-2.70205 -17.59841,-2.70267 z m 38.867911,14.81202 -24.691,0.0904 -24.690998,0.091 -2.658752,4.58577 c -1.462459,2.52235 -2.739423,4.78455 -2.837553,5.02708 -0.14191,0.35075 6.0369,0.44132 30.198153,0.44132 16.70714,0 30.37644,-0.077 30.37644,-0.17053 0,-0.0936 -0.6052,-1.16517 -1.34513,-2.38125 -0.73992,-1.21609 -2.0218,-3.44249 -2.84841,-4.94751 z m -24.62175,15.87965 c -16.480896,0 -30.034317,0.11906 -30.118577,0.26458 -0.0842,0.14552 1.137011,2.52304 2.713529,5.2834 l 2.866492,5.01881 24.464136,-0.0796 24.46414,-0.0801 2.77865,-4.7625 c 1.52827,-2.61936 2.78291,-4.96076 2.78794,-5.2033 0.007,-0.34939 -6.21441,-0.44131 -29.95631,-0.44131 z m 0.005,16.22795 c -12.522403,0 -20.839559,0.13011 -20.839559,0.32608 0,0.17936 0.842615,1.78402 1.872754,3.56619 1.392528,2.4091 2.229767,3.45628 3.263366,4.08192 l 1.390096,0.84181 14.111283,5.1e-4 c 12.73359,0.001 14.23044,-0.0589 15.33602,-0.61546 v 5.1e-4 c 0.67384,-0.33925 1.70607,-1.2724 2.2934,-2.07325 1.12984,-1.54063 3.10393,-4.9456 3.29747,-5.68751 0.0911,-0.3491 -4.22688,-0.4408 -20.72483,-0.4408 z" /><path
       id="path1964"
       style="fill:#fe4253;fill-opacity:1;stroke-width:1.05833;stroke-miterlimit:0"
       d="m 74.194954,71.399776 c -1.873486,0.01942 -3.588183,0.318325 -4.722192,0.892969 -3.235667,1.639638 -5.262085,4.693476 -6.301424,9.496061 -0.663839,3.067457 -0.739529,11.749729 -0.14056,16.110645 1.537058,11.190779 1.83212,11.998709 4.379578,11.989449 0.810539,-0.003 3.219887,-0.32309 5.354195,-0.71107 7.276443,-1.32273 19.141537,-2.44017 30.338719,-2.8577 12.28622,-0.45815 12.52768,-0.51026 12.5181,-2.69596 -0.005,-1.16423 -0.47304,-1.86004 -4.08606,-6.077153 C 99.428652,83.416092 88.858475,74.949765 79.871094,72.185258 78.100801,71.640714 76.068441,71.380356 74.194954,71.399776 Z M 143.245,71.688131 c -0.71368,0.0013 -1.46182,0.056 -2.24637,0.163297 -5.84189,0.798919 -15.8421,6.666991 -24.22488,14.215153 -2.37482,2.138388 -2.48315,3.283436 -0.52917,5.592424 8.35269,9.870235 15.93293,20.468475 22.71025,31.752585 1.76929,2.94586 3.46586,5.55452 3.77031,5.79706 0.77987,0.62126 1.97355,0.54783 2.86081,-0.17622 1.40129,-1.14352 5.86999,-14.6524 7.91889,-23.9391 2.45188,-11.11316 2.51184,-19.193215 0.18759,-25.220169 -2.15265,-5.582013 -5.45164,-8.194186 -10.44743,-8.18503 z M 77.781299,115.94538 c -1.054054,-0.0531 -2.840188,0.25545 -6.674528,1.01492 -22.935287,4.5428 -36.120696,10.92314 -41.086381,19.88096 -0.879959,1.58739 -0.999525,2.16472 -0.995805,4.80281 0.005,3.52606 0.546653,4.80644 3.31711,7.83776 3.367517,3.6846 9.347251,7.23803 18.374072,10.9182 6.369494,2.5968 7.933331,2.87617 9.04441,1.61695 0.385199,-0.43656 1.54286,-3.01608 2.572969,-5.73246 4.190306,-11.04984 9.326009,-22.02292 15.133443,-32.3355 3.111877,-5.52593 3.311921,-6.4117 1.705323,-7.537 -0.389531,-0.27284 -0.758181,-0.4348 -1.390613,-0.46664 z m 81.047761,4.25607 c -0.53534,0.009 -1.02813,0.13174 -1.29191,0.33745 -0.3299,0.25732 -2.05531,4.11875 -3.83387,8.58138 -3.5944,9.01883 -3.5906,9.01068 -7.37888,16.93334 -2.42912,5.08016 -7.80901,15.14449 -9.04647,16.92351 -1.25251,1.80066 -0.0437,4.06694 2.16937,4.06694 0.68328,0 4.04141,-0.56346 7.4626,-1.25212 22.73451,-4.57632 35.55452,-10.97463 40.2549,-20.09077 1.3232,-2.56627 1.31896,-5.96817 -0.0114,-8.67699 -1.19363,-2.43052 -4.16523,-5.45266 -7.67033,-7.80055 -4.78027,-3.20208 -16.74936,-8.55338 -20.11143,-8.9917 -0.18099,-0.0236 -0.36416,-0.0334 -0.54261,-0.0305 z m -86.207653,34.16329 c -0.434285,0.0266 -0.859203,0.16605 -1.212329,0.42426 -1.684198,1.23153 -7.365126,19.65886 -9.107454,29.54135 -0.70761,4.01353 -0.619829,14.42666 0.14521,17.2129 0.963029,3.50736 2.255403,5.97869 4.080371,7.80366 2.291808,2.29181 3.99901,2.87324 8.003646,2.7249 2.683308,-0.0994 3.671043,-0.31892 6.35,-1.41025 4.078016,-1.66125 9.451392,-4.9083 14.115418,-8.52971 5.521491,-4.28721 7.225401,-5.92445 7.225401,-6.9448 0,-0.82384 -1.40807,-3.08376 -2.910936,-4.67206 -2.977527,-3.14683 -13.406445,-17.36556 -17.344161,-23.64714 -1.337929,-2.13431 -2.783397,-4.43635 -3.212207,-5.11545 -0.42882,-0.6791 -1.381347,-2.26677 -2.116667,-3.52795 -0.735309,-1.26118 -1.657231,-2.65007 -2.04897,-3.08663 -0.492656,-0.54904 -1.243514,-0.81737 -1.967322,-0.77308 z m 78.070683,19.30786 c -1.04629,-0.002 -2.53078,0.24983 -4.69842,0.61082 -10.81086,1.80041 -21.62375,2.79852 -34.70589,3.20342 -7.58467,0.23475 -8.073,0.29055 -8.55503,0.97875 -1.26677,1.80857 -0.81847,2.53083 7.11326,11.4608 5.13489,5.78116 8.52296,9.04938 13.50512,13.02763 6.66866,5.32491 10.80072,7.54614 16.7938,9.02787 0.38805,0.0959 2.13466,0.1345 3.8809,0.0853 2.44712,-0.069 3.51384,-0.26554 4.65295,-0.8568 2.92636,-1.51893 4.71605,-4.17367 5.99188,-8.88834 1.15428,-4.26549 0.82514,-13.63357 -0.82269,-23.42028 -0.67245,-3.99378 -0.85404,-5.22499 -3.15588,-5.22914 z" /><path
       style="fill:#1a1a1a;stroke-width:0.352778"
       d="m 69.58938,219.10645 c -4.93802,-1.2355 -8.83285,-4.51093 -11.31233,-9.51334 -2.30304,-4.64645 -2.98481,-7.53904 -3.2217,-13.66888 -0.24877,-6.43736 0.25519,-11.50864 1.86323,-18.74948 0.68007,-3.06227 1.32216,-5.79101 1.42687,-6.06388 0.13384,-0.3488 -0.2636,-0.61625 -1.33841,-0.90065 -6.10563,-1.61558 -18.16351,-7.0335 -23.30867,-10.47321 -9.01735,-6.02839 -12.92575,-12.97755 -11.61733,-20.65568 1.83814,-10.78667 13.41492,-19.76903 32.6508,-25.33359 1.9178,-0.55478 3.56081,-1.08259 3.65113,-1.17292 0.0903,-0.0903 -0.003,-0.69079 -0.20733,-1.33438 -0.65009,-2.04737 -2.16868,-12.08163 -2.53678,-16.76199 -1.30129,-16.545932 3.50602,-26.835133 13.82049,-29.580432 2.45176,-0.652558 7.64399,-0.643477 10.45072,0.01828 7.57526,1.786062 15.9698,6.9266 24.71984,15.137626 l 3.99607,3.749901 2.53032,-2.35083 c 7.72149,-7.17375 17.78313,-13.633766 24.93171,-16.007264 3.18038,-1.055959 8.62976,-1.327892 11.50285,-0.574011 6.67013,1.750196 11.58046,7.566416 13.58766,16.094398 0.65861,2.798277 0.78891,4.370279 0.78948,9.525002 7.1e-4,6.5133 -0.5872,11.04718 -2.41052,18.58922 -0.45811,1.89498 -0.77009,3.54712 -0.69326,3.67142 0.0768,0.1243 0.62337,0.32274 1.21455,0.44097 2.1423,0.42846 10.87018,3.88994 15.69674,6.22534 7.19127,3.47957 11.46529,6.52073 14.83912,10.55869 3.46711,4.14961 5.1294,9.19384 4.45008,13.50379 -1.80023,11.42166 -13.12384,20.41135 -32.98406,26.18569 -3.26876,0.95039 -3.10507,0.58453 -2.22013,4.96238 1.69814,8.40073 2.53059,18.32362 1.99468,23.77666 -0.89085,9.06457 -3.65856,14.6549 -8.94812,18.0737 -3.0114,1.94637 -5.33814,2.53491 -9.9399,2.51428 -3.14045,-0.0141 -4.48395,-0.19659 -7.04428,-0.95691 -7.45966,-2.21523 -15.77277,-7.5712 -24.08671,-15.51857 l -2.97302,-2.84194 -1.7152,1.65926 c -2.669,2.58198 -10.12809,8.42255 -14.10808,11.04682 -8.9281,5.88691 -17.25496,8.27467 -23.45051,6.72453 z m 11.29147,-8.44485 c 4.07802,-1.66125 9.45147,-4.90834 14.1155,-8.52976 5.52151,-4.28721 7.22499,-5.92468 7.22499,-6.94503 0,-0.82384 -1.40796,-3.08367 -2.91083,-4.67198 -2.97753,-3.14683 -13.40637,-17.36573 -17.34409,-23.64732 -1.33793,-2.13431 -2.78345,-4.43618 -3.21226,-5.11528 -0.42882,-0.6791 -1.38129,-2.2666 -2.11661,-3.52778 -0.73531,-1.26118 -1.65745,-2.65024 -2.04919,-3.0868 -0.78825,-0.87846 -2.23765,-1.03756 -3.17932,-0.349 -1.6842,1.23153 -7.3655,19.65886 -9.10783,29.54136 -0.70761,4.01353 -0.61966,14.42677 0.14538,17.21302 0.96303,3.50736 2.25526,5.97888 4.08023,7.80385 2.29181,2.29181 3.99938,2.87311 8.00402,2.72477 2.68331,-0.0994 3.67104,-0.31872 6.35001,-1.41005 z m 67.7976,0.54855 c 2.92636,-1.51894 4.71606,-4.1738 5.99189,-8.88848 1.15428,-4.26549 0.82525,-13.63318 -0.82258,-23.4199 -0.97811,-5.80914 -0.91772,-5.77363 -7.85418,-4.61845 -10.81087,1.80041 -21.62402,2.79846 -34.70617,3.20336 -7.58468,0.23475 -8.07283,0.2906 -8.55486,0.9788 -1.26677,1.80857 -0.81856,2.53072 7.11318,11.4607 5.1349,5.78116 8.52295,9.04944 13.50511,13.02769 6.66867,5.32492 10.80103,7.54637 16.79412,9.0281 0.38805,0.0959 2.1343,0.13413 3.88055,0.0849 2.44712,-0.069 3.51383,-0.26543 4.65294,-0.85669 z m -25.29997,-42.31472 c 0.67385,-0.33925 1.70572,-1.27206 2.29305,-2.07292 1.12985,-1.54063 3.10409,-4.94573 3.29763,-5.68764 0.0911,-0.3491 -4.22675,-0.44097 -20.72472,-0.44097 -12.52241,0 -20.83977,0.13015 -20.83977,0.32612 0,0.17936 0.84284,1.78425 1.87298,3.56642 1.39253,2.40911 2.22959,3.45615 3.26319,4.08179 l 1.39022,0.84149 14.11112,0.001 c 12.7336,0.001 14.23072,-0.059 15.3363,-0.61556 z m 23.53118,-3.10365 c 22.73454,-4.57632 35.55485,-10.97479 40.25524,-20.09094 1.3232,-2.56628 1.31863,-5.96812 -0.0117,-8.67694 -1.19364,-2.43053 -4.16529,-5.45259 -7.67039,-7.80049 -4.78028,-3.20208 -16.7494,-8.55341 -20.11148,-8.99173 -0.72397,-0.0944 -1.48285,0.0326 -1.83455,0.30687 -0.3299,0.25732 -2.055,4.1191 -3.83356,8.58174 -3.5944,9.01884 -3.59083,9.01066 -7.37911,16.93333 -2.42912,5.08017 -7.80906,15.14461 -9.04653,16.92363 -1.25251,1.80066 -0.0437,4.06665 2.1694,4.06665 0.68328,0 4.04147,-0.56346 7.46266,-1.25212 z m -87.14984,-3.77497 c 0.3852,-0.43656 1.54318,-3.01625 2.57329,-5.73264 4.19031,-11.04985 9.32573,-22.02282 15.13317,-32.33541 3.11189,-5.52594 3.31229,-6.4114 1.70568,-7.53671 -1.03875,-0.72757 -1.93048,-0.66696 -8.06543,0.54819 -22.93532,4.5428 -36.12071,10.92289 -41.0864,19.88072 -0.87996,1.58739 -0.9997,2.16485 -0.99598,4.80294 0.005,3.52607 0.54687,4.80638 3.31733,7.8377 3.36752,3.6846 9.34744,7.2379 18.37428,10.91807 6.3695,2.5968 7.93298,2.87636 9.04406,1.61714 z m 75.64788,-11.90625 c 1.52828,-2.61937 2.7828,-4.96093 2.78783,-5.20347 0.007,-0.34939 -6.21421,-0.44097 -29.95614,-0.44097 -16.48092,0 -30.03425,0.11906 -30.11851,0.26458 -0.0842,0.14552 1.13669,2.52306 2.71322,5.28342 l 2.8664,5.01883 24.46426,-0.0799 24.46425,-0.0799 z m 3.14976,-11.45906 c 0,-0.0936 -0.60539,-1.16516 -1.34532,-2.38125 -0.73992,-1.21609 -2.02163,-3.44246 -2.84824,-4.94748 l -1.50293,-2.7364 -24.69094,0.0906 -24.69096,0.0906 -2.65903,4.58611 c -1.46247,2.52236 -2.73932,4.78455 -2.83745,5.02708 -0.14191,0.35075 6.03695,0.44097 30.19824,0.44097 16.70715,0 30.37663,-0.0766 30.37663,-0.17017 z m 7.02836,-9.61941 c 1.4013,-1.14353 5.86975,-14.65199 7.91865,-23.9387 2.45188,-11.11317 2.51205,-19.193328 0.1878,-25.220289 -2.46017,-6.379447 -6.41738,-8.880202 -12.69382,-8.021845 -5.84189,0.798927 -15.84223,6.667167 -24.22502,14.215337 -2.37482,2.138377 -2.48315,3.283117 -0.52916,5.592107 8.35269,9.87025 15.93282,20.46859 22.71014,31.75271 1.7693,2.94586 3.46601,5.55453 3.77046,5.79707 0.77987,0.62126 1.97369,0.54766 2.86095,-0.17639 z m -16.25938,-6.40304 c -0.29211,-0.78901 -2.6898,-4.82454 -3.65491,-6.15156 -1.99732,-2.74632 -1.70796,-2.70187 -17.59835,-2.70249 l -14.08013,-5.5e-4 -1.44211,0.84865 c -1.13758,0.66944 -1.87045,1.59848 -3.47058,4.39956 -1.11566,1.95301 -2.02847,3.63487 -2.02847,3.73747 0,0.1026 9.53824,0.18654 21.19608,0.18654 12.41852,0 21.14737,-0.13153 21.07847,-0.31762 z M 72.76438,109.17776 c 7.27646,-1.32273 19.14171,-2.44047 30.33891,-2.85801 12.28623,-0.45815 12.52743,-0.51009 12.51785,-2.6958 -0.005,-1.16423 -0.473,-1.86016 -4.08602,-6.07728 C 99.42845,83.415725 88.85837,74.949532 79.87098,72.185018 c -3.5406,-1.089084 -8.13025,-1.041511 -10.39827,0.107781 -3.23567,1.63964 -5.26207,4.693309 -6.30141,9.495896 -0.66384,3.067462 -0.73966,11.749835 -0.14069,16.110755 1.53706,11.19079 1.83205,11.99834 4.37951,11.98908 0.81054,-0.003 3.21995,-0.32279 5.35426,-0.71077 z"
       id="path338-3" /></g></svg>
