<?xml version="1.0" encoding="UTF-8" standalone="no"?>
<svg
   viewBox="0 0 451 512"
   version="1.1"
   id="svg1768"
   sodipodi:docname="HTML5-icon.svg"
   width="451"
   height="512"
   inkscape:version="1.2 (1:1.2+202206011327+fc4e4096c5)"
   xmlns:inkscape="http://www.inkscape.org/namespaces/inkscape"
   xmlns:sodipodi="http://sodipodi.sourceforge.net/DTD/sodipodi-0.dtd"
   xmlns="http://www.w3.org/2000/svg"
   xmlns:svg="http://www.w3.org/2000/svg"
   xmlns:rdf="http://www.w3.org/1999/02/22-rdf-syntax-ns#"
   xmlns:cc="http://creativecommons.org/ns#"
   xmlns:dc="http://purl.org/dc/elements/1.1/">
  <defs
     id="defs1772" />
  <sodipodi:namedview
     id="namedview1770"
     pagecolor="#ffffff"
     bordercolor="#666666"
     borderopacity="1.0"
     inkscape:showpageshadow="2"
     inkscape:pageopacity="0.0"
     inkscape:pagecheckerboard="0"
     inkscape:deskcolor="#d1d1d1"
     showgrid="false"
     inkscape:zoom="1.9492188"
     inkscape:cx="226.24449"
     inkscape:cy="256.25651"
     inkscape:window-width="2560"
     inkscape:window-height="1361"
     inkscape:window-x="1920"
     inkscape:window-y="0"
     inkscape:window-maximized="1"
     inkscape:current-layer="svg1768" />
  <title
     id="title1758">HTML5 Logo Badge</title>
  <path
     fill="#e34f26"
     d="M 41,460 0,0 h 451 l -41,460 -185,52"
     id="path1760" />
  <path
     fill="#ef652a"
     d="M 226,472 375,431 410,37 H 226"
     id="path1762" />
  <path
     fill="#ebebeb"
     d="m 226,208 h -75 l -5,-58 h 80 V 94 H 225 84 l 1,15 14,156 h 127 z m 0,147 h -1 l -63,-17 -4,-45 h -30 -26 l 7,89 116,32 h 1 z"
     id="path1764" />
  <path
     fill="#ffffff"
     d="m 225,208 v 57 h 70 l -7,73 -63,17 v 59 l 116,-32 1,-10 13,-149 2,-15 h -16 z m 0,-114 v 35 21 0 h 137 v 0 0 l 1,-12 3,-29 1,-15 z"
     id="path1766" />
  <metadata
     id="metadata1903">
    <rdf:RDF>
      <cc:Work
         rdf:about="">
        <dc:title>HTML5 Logo Badge</dc:title>
      </cc:Work>
    </rdf:RDF>
  </metadata>
</svg>
