<?xml version="1.0" encoding="UTF-8" standalone="no"?>
<!-- Created with Inkscape (http://www.inkscape.org/) -->

<svg
   version="1.1"
   id="svg64"
   width="451.89059"
   height="512"
   viewBox="0 0 451.89059 512"
   sodipodi:docname="Javascript.svg"
   inkscape:version="1.2 (1:1.2+202206011327+fc4e4096c5)"
   xmlns:inkscape="http://www.inkscape.org/namespaces/inkscape"
   xmlns:sodipodi="http://sodipodi.sourceforge.net/DTD/sodipodi-0.dtd"
   xmlns="http://www.w3.org/2000/svg"
   xmlns:svg="http://www.w3.org/2000/svg"
   xmlns:rdf="http://www.w3.org/1999/02/22-rdf-syntax-ns#"
   xmlns:cc="http://creativecommons.org/ns#"
   xmlns:dc="http://purl.org/dc/elements/1.1/">
  <metadata
     id="metadata70">
    <rdf:RDF>
      <cc:Work
         rdf:about="">
        <dc:format>image/svg+xml</dc:format>
        <dc:type
           rdf:resource="http://purl.org/dc/dcmitype/StillImage" />
      </cc:Work>
    </rdf:RDF>
  </metadata>
  <defs
     id="defs68" />
  <sodipodi:namedview
     pagecolor="#ffffff"
     bordercolor="#666666"
     borderopacity="1"
     objecttolerance="10"
     gridtolerance="10"
     guidetolerance="10"
     inkscape:pageopacity="0"
     inkscape:pageshadow="2"
     inkscape:window-width="2560"
     inkscape:window-height="1361"
     id="namedview66"
     showgrid="false"
     fit-margin-top="0"
     fit-margin-left="0"
     fit-margin-right="0"
     fit-margin-bottom="0"
     inkscape:zoom="1.0628712"
     inkscape:cx="365.04894"
     inkscape:cy="192.40337"
     inkscape:window-x="1920"
     inkscape:window-y="0"
     inkscape:window-maximized="1"
     inkscape:current-layer="svg64"
     inkscape:showpageshadow="2"
     inkscape:pagecheckerboard="0"
     inkscape:deskcolor="#d1d1d1" />
  <path
     style="fill:#ffffff;stroke-width:1.51647"
     d="m 1.5169096,0 0.071084,5.68676 c 0.03917,3.12772 9.1006614,106.6844 20.1369024,230.12504 l 20.06583,224.43827 90.186264,25.25056 c 49.60234,13.88777 91.2099,25.32047 92.46098,25.40828 1.25109,0.0877 43.40809,-11.23013 93.68274,-25.15061 80.60466,-22.31849 91.48619,-25.67999 92.06334,-28.44269 0.80411,-3.849 40.27655,-449.13937 40.23606,-453.90355 L 450.39121,0 H 225.95296 Z"
     id="path118"
     inkscape:connector-curvature="0" />
  <path
     inkscape:connector-curvature="0"
     id="path88"
     d="M 132.69111,487.0112 41.702924,461.57815 40.513879,454.84824 C 39.456926,448.86602 0,8.17096 0,2.34814 0,0.24073 23.037811,0.00148 225.95401,0.00148 c 214.18996,0 225.95309,0.13815 225.93656,2.65382 -0.0714,10.86552 -40.91243,457.39601 -41.91609,458.28478 -1.26827,1.12309 -177.37753,50.18627 -183.26223,51.05594 -1.66813,0.24653 -43.97763,-10.99664 -94.02114,-24.98482 z m 150.63591,-89.86565 c 30.58219,-8.43462 56.0453,-15.77055 56.58465,-16.30204 0.53937,-0.5315 4.11803,-36.79294 7.95255,-80.58101 3.83454,-43.78806 7.35892,-82.51491 7.83195,-86.05966 l 0.86009,-6.44499 h -66.05937 -66.05935 v 28.05468 28.0547 h 35.66593 35.66592 l -0.70948,3.41205 c -0.39021,1.87664 -1.90703,18.00355 -3.3707,35.8376 -1.55091,18.897 -3.38963,33.15394 -4.40708,34.1714 -0.96024,0.96023 -15.49308,5.41006 -32.29524,9.88849 l -30.54935,8.14264 v 28.58093 c 0,19.50769 0.5215,28.58093 1.64275,28.58093 0.90351,0 26.66454,-6.90108 57.24673,-15.33572 z M 355.6868,172.49992 c -1.00242,-7.43075 -9.93168,-107.09631 -9.93168,-110.85427 0,-2.28258 -5.24963,-2.50185 -59.90055,-2.50185 h -59.90056 v 29.33655 29.33656 l 26.91734,1.03747 c 14.80453,0.5706 30.38491,1.439 34.62305,1.92979 l 7.7057,0.89236 1.87065,22.94743 c 1.02885,12.62109 2.25478,25.50647 2.72428,28.63419 l 0.85364,5.68676 h 27.95379 27.9538 z"
     style="fill:#eaebec;stroke-width:1.51647"
     sodipodi:nodetypes="sccsssccsscsccccccccsscscssscsscccsccsscccc" />
  <path
     inkscape:connector-curvature="0"
     id="path80"
     d="M 131.97678,485.50055 41.790727,460.25007 21.724818,235.81253 C 10.688565,112.37189 1.6268574,8.81596 1.587687,5.68824 L 1.516489,0.00148 H 225.95401 450.39154 l 0.0291,3.41206 c 0.0405,4.76418 -39.43282,450.05464 -40.23693,453.90364 -0.57715,2.7627 -11.4583,6.12445 -92.06297,28.44294 -50.27464,13.92048 -92.43206,25.23817 -93.68315,25.15045 -1.25109,-0.0878 -42.85843,-11.52225 -92.46076,-25.41002 z M 283.3955,398.21793 c 31.17578,-8.66749 57.12568,-16.47492 57.66642,-17.34986 0.54072,-0.87493 4.26509,-38.98843 8.27634,-84.69668 4.01123,-45.70824 7.62163,-84.30013 8.02308,-85.75972 0.68964,-2.50737 -4.61498,-2.65382 -96.12193,-2.65382 h -96.85185 l 4.12365,-43.59852 c 2.268,-23.97917 4.17825,-43.66059 4.24499,-43.73647 0.0668,-0.0759 14.2814,-0.52929 31.58811,-1.00758 28.37807,-0.7843 86.89915,1.47956 88.85694,3.43735 0.73141,0.73141 5.54331,47.93982 5.54331,54.38415 0,3.17755 0.42877,3.22461 29.38487,3.22461 h 29.3849 l -0.69247,-6.445 c -0.38086,-3.54475 -2.87,-31.01181 -5.53145,-61.03791 l -4.839,-54.59292 -113.32513,-0.38877 c -90.15646,-0.30929 -113.3277,7.4e-4 -113.3376,1.51647 -0.008,1.0479 -0.66764,7.70574 -1.46842,14.79524 -1.93777,17.15531 -16.71677,182.91186 -16.71677,187.48979 v 3.5854 h 96.42912 96.42913 l -0.85962,5.68676 c -0.4728,3.12772 -1.97176,18.99379 -3.33103,35.25793 -1.35927,16.26414 -2.90905,29.9913 -3.44397,30.50482 -1.4128,1.35628 -58.14073,16.51103 -61.67814,16.47718 -1.64239,-0.0157 -16.29317,-3.67114 -32.55731,-8.12315 l -29.57116,-8.09457 -1.08438,-12.72833 c -0.59642,-7.00056 -1.50375,-16.99338 -2.0163,-22.20624 l -0.9319,-9.47794 h -28.69222 -28.69222 l 0.0636,5.68676 c 0.11874,10.63495 7.01499,82.27013 8.01644,83.27157 1.1582,1.15823 111.36072,32.13602 114.7541,32.25726 1.25109,0.0447 27.78217,-7.01032 58.95797,-15.67781 z"
     style="fill:#f0be25;stroke-width:1.51647"
     sodipodi:nodetypes="ccsccccccscccccscscsccsssccscscssccccsccscsscccccccc" />
  <path
     inkscape:connector-curvature="0"
     id="path78"
     d="M 131.97678,485.50055 41.790727,460.25007 21.724818,235.81253 C 10.688565,112.37189 1.6268574,8.81596 1.587687,5.68824 L 1.516489,0.00148 H 225.95401 450.39154 l 0.0291,3.41206 c 0.0405,4.76418 -39.43282,450.05464 -40.23693,453.90364 -0.57715,2.7627 -11.4583,6.12445 -92.06297,28.44294 -50.27464,13.92048 -92.43206,25.23817 -93.68315,25.15045 -1.25109,-0.0878 -42.85843,-11.52225 -92.46076,-25.41002 z m 168.18528,-33.78029 c 39.67221,-10.94684 72.87648,-20.6712 73.78728,-21.6097 1.41743,-1.46055 35.68115,-376.98022 35.54328,-389.54351 l -0.0457,-4.1703 H 317.7005 225.95407 v 10.61529 10.6153 h -53.07649 c -41.44354,0 -53.07917,0.41546 -53.08888,1.89558 -0.008,1.04257 -0.66764,7.69608 -1.46842,14.78558 -1.93777,17.15531 -16.71677,182.91186 -16.71677,187.48979 v 3.5854 h 62.17525 62.17527 v 43.97763 c 0,34.18636 -0.42204,43.97127 -1.89559,43.94906 -1.04257,-0.0158 -15.20261,-3.67114 -31.46675,-8.12315 l -29.57116,-8.09457 -1.08438,-12.72833 c -0.59642,-7.00056 -1.50375,-16.99338 -2.0163,-22.20624 l -0.9319,-9.47794 h -28.69222 -28.69222 l 0.0636,5.68676 c 0.18165,16.26582 7.2182,82.66193 8.86846,83.68184 1.00303,0.6199 27.38254,8.19974 58.62111,16.84405 l 56.79737,15.71694 v 28.50691 c 0,15.67882 0.46727,28.50695 1.03839,28.50695 0.5711,0 33.49745,-8.95651 73.16966,-19.90334 z M 168.35142,164.56686 c 2.18012,-23.75505 4.26098,-43.45984 4.62412,-43.78843 0.36314,-0.32857 12.43185,-0.92311 26.81936,-1.32116 l 26.15911,-0.72376 v 44.51216 44.51218 h -30.78323 -30.78322 z"
     style="fill:#e4a126;stroke-width:1.51647"
     sodipodi:nodetypes="ccsccccccscccscccccccscsscccscscsscccccscsssscscccccs" />
</svg>
