<?xml version="1.0" encoding="UTF-8"?>
<!DOCTYPE svg PUBLIC "-//W3C//DTD SVG 1.1//EN" "http://www.w3.org/Graphics/SVG/1.1/DTD/svg11.dtd">
<!-- Creator: CorelDRAW 2020 (64-Bit) -->
<svg xmlns="http://www.w3.org/2000/svg" xml:space="preserve" width="512px" height="512px" version="1.1" style="shape-rendering:geometricPrecision; text-rendering:geometricPrecision; image-rendering:optimizeQuality; fill-rule:evenodd; clip-rule:evenodd"
viewBox="0 0 498.51 498.51"
 xmlns:xlink="http://www.w3.org/1999/xlink"
 xmlns:xodm="http://www.corel.com/coreldraw/odm/2003">
 <defs>
  <style type="text/css">
   <![CDATA[
    .fil0 {fill:#3D4556}
    .fil11 {fill:#7C828C}
    .fil3 {fill:#82B060}
    .fil5 {fill:#83B261}
    .fil12 {fill:#868A93}
    .fil8 {fill:#88B965}
    .fil10 {fill:#8A8E94}
    .fil9 {fill:#8CBD65}
    .fil7 {fill:#94C96D}
    .fil2 {fill:#95CA6D}
    .fil4 {fill:#95CB6E}
    .fil6 {fill:#989CA3}
    .fil13 {fill:#9EA1A8}
    .fil1 {fill:#DEDEDE}
   ]]>
  </style>
 </defs>
 <g id="Plan_x0020_1">
  <metadata id="CorelCorpID_0Corel-Layer"/>
  <g id="_1250933623328">
   <path class="fil0" d="M246.33 252.57l-5.7 -5.41 -1.07 -0.88 -1.03 -0.89 -2.85 -4.01 -1.13 -0.76c-1.53,-2.32 -3.28,-4.56 -4.66,-7.09l-1.02 -0.82 -3.92 -6.88 -0.89 -0.99 -0.19 -0.83 -0.89 -1.02 -5.02 -10.45 -0.73 -1.36 -1.24 -3.51 -0.69 -1.44 -2.05 -6.7 -1.08 -1.65 0.21 -1.5 -1.03 -1.7 -0.09 -1.85 -0.93 -1.95 -0.07 -1.87 -0.77 -2.32 -0.17 -2.59 -0.98 -2.89 0 -2.93 -0.95 -3.96 -0.11 -5.55c-1.47,-5.08 -1.34,-14.15 -0.07,-19.29l0.06 -5.69 1.39 -4.18 -0.18 -3.1 0.67 -2.62 0.23 -2.42 0.81 -2.26 0.08 -1.83 0.95 -1.92 0.01 -1.96 1.02 -1.8 0.27 -1.48 0.57 -1.74 0.35 -1.33 0.62 -1.6 0.41 -1.22 0.63 -1.55 1.21 -3.52 0.7 -1.43 6.92 -14.38 0.92 -1.02 0.17 -0.84 0.91 -1 0.94 -1.98 0.97 -0.94 0.9 -2.1 1.04 -0.84 0.96 -2.04 1.05 -0.83 1.86 -3.05 1.16 -0.74 5.62 -7.04 1.06 -0.89 0.97 -0.98 1 -0.96 0.94 -1 1.13 -0.84 0.95 -0.97 0.85 -1.11 0.99 -0.94 0.96 -1.01 0.98 -0.97 0.9 -1.05 7.04 -5.62 0.74 -1.16 3.04 -1.87 0.84 -1.04 2.06 -0.95 0.9 -1 1.97 -0.96 0.94 -0.95 3.88 -2 1.02 -0.9 12.44 -6 1.39 -0.71 3.52 -1.23 1.47 -0.7 3.69 -1.1 1.57 -1.13 1.34 0.15 1.68 -1.06 1.35 0.13 1.75 -1.02 1.81 -0.09 2.03 -0.91 1.8 -0.09 2.21 -0.82 2.1 0.04 2.8 -1.02 4.35 -0.23 4.52 -0.73 29.29 -0.19 5.33 1.28 2.82 -0.05 2.42 0.78 2.11 -0.06 2.24 1.34 1.96 -0.05 1.88 0.54 1.52 0.19 1.75 1.04 1.63 0.24 1.67 0.6 1.25 0.37 1.6 0.62 3.48 1.17 1.52 0.67 3.34 1.28 1.38 0.73 14.26 7.02 1.04 0.93c4.44,1.98 6.98,4.73 10.81,6.8l0.77 1.1 4.12 2.74 0.72 1.19c3.4,2.85 6.14,3.92 8.32,7.61 10.92,9.43 20.85,25.29 27.26,38.61 23.37,48.53 12.02,110.4 -25.89,148.1 -20.84,20.71 -51.97,39.23 -93.23,39.18 -21.07,-0.02 -36.89,-2.5 -55.18,-11.03 -16.32,-7.6 -22.1,-11.87 -35.16,-23.27 -2.91,-2.54 -3,-0.94 -4.11,-4.25zm85.22 -252.57l16.44 0c25.28,1.28 50.19,8.47 72.32,21.73 28.28,16.94 47.84,38.55 62.63,67.84 14.87,29.46 15.57,48.23 15.57,80.82 0,28.12 -15.19,62.78 -30.59,83.33 -5.67,7.56 -11.29,13.55 -17.85,20.12 -41.94,42.01 -105.94,55.49 -164.19,35.19 -14.87,-5.19 -26.84,-12 -38.33,-19.61l-36.27 35.78c14.43,27.27 0.47,33.36 -9.73,46.74l-104.47 104.86c-17.67,14.77 -16.52,21.71 -38.66,21.71 -11.65,0 -26.15,-16.9 -33.84,-24.58 -6.81,-6.82 -24.58,-21.44 -24.58,-32.86 0,-23.2 2.03,-15.36 15.58,-33.11 3.55,-4.65 101.32,-102.78 112.66,-112.26 5.76,-4.82 12.8,-14.31 22.68,-14.31 12.13,0 10.7,-0.11 22.16,5.6l35.28 -35.79c-0.79,-2.98 -3.47,-6.63 -5.27,-9.33 -4.44,-6.7 -10.69,-21.48 -13.64,-29.2 -8.55,-22.32 -9.32,-36.33 -9.32,-60.78 0,-22.01 7.76,-45.56 14.92,-61.02 8.58,-18.52 25.48,-40.96 41.67,-53.75 11.3,-8.91 20.33,-15.74 34.28,-22.2 19.17,-8.87 39.8,-13.87 60.55,-14.92z"/>
   <path class="fil1" d="M320.89 28.07l-4.35 0.23 -2.8 1.02 -2.1 -0.04 -2.21 0.82 -1.8 0.09 -2.03 0.91 -1.81 0.09 -1.75 1.02 -1.35 -0.13 -1.68 1.06 -1.34 -0.15 -1.57 1.13 -3.69 1.1 -1.47 0.7 -3.52 1.23 -1.39 0.71 -12.44 6 -1.02 0.9 -3.88 2 -0.94 0.95 -1.97 0.96 -0.9 1 -2.06 0.95 -0.84 1.04 -3.04 1.87 -0.74 1.16 -7.04 5.62 -0.9 1.05 -0.98 0.97 -0.96 1.01 -0.99 0.94 -0.85 1.11 -0.95 0.97 -1.13 0.84 -0.94 1 -1 0.96 -0.97 0.98 -1.06 0.89 -5.62 7.04 -1.16 0.74 -1.86 3.05 -1.05 0.83 -0.96 2.04 -1.04 0.84 -0.9 2.1 -0.97 0.94 -0.94 1.98 -0.91 1 -0.17 0.84 -0.92 1.02 -6.92 14.38 -0.7 1.43 -1.21 3.52 -0.63 1.55 -0.41 1.22 -0.62 1.6 -0.35 1.33 -0.57 1.74 -0.27 1.48 -1.02 1.8 -0.01 1.96 -0.95 1.92 -0.08 1.83 -0.81 2.26 -0.23 2.42 -0.67 2.62 0.18 3.1 -1.39 4.18 -0.06 5.69 0.07 19.29 0.11 5.55 0.95 3.96 0 2.93 0.98 2.89 0.17 2.59 0.77 2.32 0.07 1.87 0.93 1.95 0.09 1.85 1.03 1.7 -0.21 1.5 1.08 1.65 2.05 6.7 0.69 1.44 1.24 3.51 0.73 1.36 5.02 10.45 0.89 1.02 0.19 0.83 0.89 0.99 3.92 6.88 1.02 0.82c1.38,2.53 3.13,4.77 4.66,7.09l1.13 0.76 2.85 4.01 1.03 0.89 1.07 0.88 5.7 5.41c2.97,-5.58 146.79,-147.67 162.85,-163.72 7.83,-7.84 16.1,-15.38 23.46,-23.62 -2.18,-3.69 -4.92,-4.76 -8.32,-7.61l-0.72 -1.19 -4.12 -2.74 -0.77 -1.1c-3.83,-2.07 -6.37,-4.82 -10.81,-6.8l-1.04 -0.93 -14.26 -7.02 -1.38 -0.73 -3.34 -1.28 -1.52 -0.67 -3.48 -1.17 -1.6 -0.62 -1.25 -0.37 -1.67 -0.6 -1.63 -0.24 -1.75 -1.04 -1.52 -0.19 -1.88 -0.54 -1.96 0.05 -2.24 -1.34 -2.11 0.06 -2.42 -0.78 -2.82 0.05 -5.33 -1.28 -29.29 0.19 -4.52 0.73z"/>
   <path class="fil2" d="M348.57 395.3c0,-4.97 -0.02,-1.61 0.97,-2.92 0,5.15 -0.01,1.45 -0.97,2.92zm0.97 -4.86c-0.35,-1.85 1.23,-3.47 0.62,-0.62 -0.02,0.06 0.03,4.01 -0.62,0.62zm0.98 -3.9c0,-2.49 1.54,-0.16 0.57,0 -0.01,0 -0.57,2.72 -0.57,0zm-57.82 58.42l29.58 8.76c2.6,0.73 7.63,1.91 9.74,2.92 4.97,-9.39 14.26,-57.72 16.55,-61.34l0 4.87c1.76,-2.54 4.3,-13.73 5.5,-17.86 1.72,-5.93 4.23,-13.26 4.23,-20.11l-65.54 -18.5 -0.06 101.26z"/>
   <path class="fil2" d="M87.68 236.6c4.8,2.37 29.19,8.76 35,8.76l23.17 -80.04c0.98,-3.61 2.85,-9.23 3.12,-12.46l-30.3 -8.65c-5.22,-1.53 -9.92,-2.72 -15.25,-4.22 -3.95,-1.11 -12.27,-2.92 -15.71,-4.65l-0.03 101.26z"/>
   <path class="fil3" d="M87.68 236.6l0.03 -101.26c-11.16,-2.5 -21.26,-6.21 -32.21,-8.77 -3.21,13.77 -26.13,86.35 -26.29,93.48 10.55,2.45 51.98,16.02 58.47,16.55z"/>
   <path class="fil3" d="M407.1 438.14c-0.41,-9.53 -0.72,-82.17 -0.06,-84.7l-22.87 6.39c-14.43,4.12 -11.54,0.4 -15.58,14.61l-21.9 75.68c-1.55,5.83 -0.44,5.29 13.22,1.32l47.19 -13.3z"/>
   <path class="fil3" d="M235.62 428.41c3.87,2.69 36.89,11.29 42.64,12.86 3.42,0.93 10.49,3.59 14.44,3.69l0.06 -101.26 -26.95 -6.82 -6.7 23.49c-2.32,7.88 -4.63,15.99 -6.72,23.46l-10.06 35.7c-2.98,10.45 -1.29,8.76 -6.71,8.88z"/>
   <path class="fil2" d="M87.51 123.65l29.96 8.13c10.16,2.94 19.55,6.1 29.55,8.43 -0.15,-6.72 -24.75,-84.75 -25.31,-91.53 -3.45,-0.28 -31.27,-8.38 -34.05,-9.73l-0.15 84.7z"/>
   <path class="fil3" d="M87.51 123.65l0.15 -84.7c-9.35,-2.15 -18.87,-5.2 -28.15,-7.91 -5.65,-1.65 -24.47,-7.56 -29.33,-7.67l21.84 76.5c4.76,16.69 0.72,12.79 20.15,18.8 4.49,1.38 11.73,3.12 15.34,4.98z"/>
   <path class="fil2" d="M407.04 353.44c-0.66,2.53 -0.35,75.17 0.06,84.7l30.07 -8.76 25.32 -91.52 -55.45 15.58z"/>
   <path class="fil3" d="M87.8 296.96c-0.24,-7.45 -0.82,-46.26 -0.11,-48.68 -3.82,-0.31 -10.52,-2.73 -13.9,-3.68 -10.65,-2.99 -34.82,-10.92 -43.61,-10.92 1.86,7.98 3.97,14.89 6.27,22.94 2.32,8.15 4.16,15.46 6.76,23.43l11.86 39.73c1.17,3.87 2.31,5.48 4.61,4.35l5.84 -5.46c3.35,-2.81 4.62,-3.71 7.75,-6.86 4.63,-4.66 10.65,-9.91 14.53,-14.85z"/>
   <path class="fil3" d="M166.05 87.63l0.07 -48.68c-4.16,0.11 -25.98,7.19 -32.73,8.76l10.83 37.85c1.62,5.07 8.79,34.37 12.54,37.12 0.64,-2.75 1.15,-6.56 1.72,-8.99 1.7,-7.21 7.91,-22.91 7.57,-26.06z"/>
   <path class="fil3" d="M222.89 430.36l-0.47 -40.9c-9.02,9.5 -18.48,18.54 -27.93,27.99 -3.54,3.54 -26.88,25.29 -28,29.46l56.4 -16.55z"/>
   <path class="fil2" d="M87.8 296.96c7.3,-5.53 25.03,-25.83 30.87,-30.29 14.61,-11.16 -16.84,-11.37 -30.98,-18.39 -0.71,2.42 -0.13,41.23 0.11,48.68z"/>
   <path class="fil2" d="M166.12 38.95l-0.07 48.68c1.78,-1.48 0.32,0.17 1.55,-1.73 0.85,-1.32 0.19,-0.16 1.04,-2 0.57,-1.26 1.03,-2.61 1.74,-4.07l13.69 -24.28c2.96,-4.65 6.8,-9.45 10.44,-13.91 4.05,-4.96 9.83,-10.24 10.93,-14.38l-39.32 11.69z"/>
   <path class="fil4" d="M407.01 332.99l0.19 7.79c9.38,-2.44 18.53,-5.15 27.9,-7.91 4.62,-1.36 9.51,-2.58 14.52,-3.99 3.6,-1.01 10.5,-3.58 14.81,-3.68 -0.26,-3.19 -4.7,-19.05 -5.84,-21.42l-24.28 15.63c-4.38,2.64 -8.35,4.57 -13.37,7.09 -2.49,1.25 -3.91,2.07 -6.57,3.16l-6.75 2.97c-0.13,0.07 -0.42,0.22 -0.61,0.36z"/>
   <path class="fil4" d="M222.42 389.46l0.47 40.9c1.14,-0.53 1.18,-0.22 2.14,-0.84 3.48,-2.24 6.07,-15.57 7.33,-19.95 2.39,-8.3 19.69,-65.84 19.82,-71.71 -14.18,1.18 -4.29,8.62 -12.36,27.56 -4.48,10.51 -9.37,16.27 -17.4,24.04z"/>
   <path class="fil3" d="M153.84 239.64c-0.09,-0.15 -0.16,-0.42 -0.18,-0.51 -0.02,-0.1 -0.13,-0.42 -0.16,-0.55 -0.02,-0.14 -0.09,-0.44 -0.11,-0.61 -0.02,-0.19 -0.04,-0.48 -0.05,-0.7 -0.04,-0.59 0.06,-2.75 0.08,-3.51l0.04 -21.5c0,-7.82 -1.05,-22.09 -0.35,-28.24l-17.77 60.37c4.49,0 15.76,-3.08 18.5,-4.75z"/>
   <path class="fil2" d="M153.11 184.02c-0.7,6.15 0.35,20.42 0.35,28.24l-0.04 21.5c-0.02,0.76 -0.12,2.92 -0.08,3.51 0.01,0.22 0.03,0.51 0.05,0.7 0.02,0.17 0.09,0.47 0.11,0.61 0.03,0.13 0.14,0.45 0.16,0.55 0.02,0.09 0.09,0.36 0.18,0.51 2.95,-0.21 12.6,-3.06 14.6,-4.02 -3.85,-16.55 -9.39,-24.85 -13.34,-48.09 -0.35,-2.11 -1,-9.04 -1.99,-3.51z"/>
   <path class="fil5" d="M407.2 340.78l-0.19 -7.79c-5.86,1.35 -12.68,3.98 -18.64,5.73l-20.33 4.98c1.03,2.13 1.7,3.83 1.95,6.82 5.36,0 13.68,-3.04 18.84,-4.53 5.66,-1.65 13.69,-3.21 18.37,-5.21z"/>
   <path class="fil6" d="M207.28 168.77l-0.07 -19.29c-1.27,5.14 -1.4,14.21 0.07,19.29z"/>
   <path class="fil7" d="M348.57 400.17c-0.99,1.31 -0.98,-2.05 -0.98,2.92l0.98 0 0 -2.92z"/>
   <path class="fil8" d="M235.62 428.41c-1.3,-0.99 2.05,-0.98 -2.92,-0.98l0 0.98 2.92 0z"/>
   <path class="fil9" d="M230.76 427.43l0.29 -0.29c-0.02,0.02 -0.39,0.2 -0.29,0.29z"/>
   <polygon class="fil10" points="262.82,50.62 261.98,51.66 "/>
   <polygon class="fil11" points="419.48,53.69 418.71,52.59 "/>
   <polygon class="fil12" points="258.94,53.53 258.2,54.69 "/>
   <polygon class="fil12" points="424.32,57.62 423.6,56.43 "/>
   <polygon class="fil12" points="251.16,60.31 250.26,61.36 "/>
   <polygon class="fil10" points="250.26,61.36 249.28,62.33 "/>
   <polygon class="fil6" points="249.28,62.33 248.32,63.34 "/>
   <polygon class="fil6" points="248.32,63.34 247.33,64.28 "/>
   <polygon class="fil13" points="247.33,64.28 246.48,65.39 "/>
   <polygon class="fil13" points="245.53,66.36 244.4,67.2 "/>
   <polygon class="fil6" points="244.4,67.2 243.46,68.2 "/>
   <polygon class="fil10" points="242.46,69.16 241.49,70.14 "/>
   <polygon class="fil12" points="241.49,70.14 240.43,71.03 "/>
   <polygon class="fil12" points="234.81,78.07 233.65,78.81 "/>
   <polygon class="fil10" points="231.79,81.86 230.74,82.69 "/>
   <polygon class="fil6" points="229.78,84.73 228.74,85.57 "/>
   <polygon class="fil6" points="227.84,87.67 226.87,88.61 "/>
   <polygon class="fil11" points="225.93,90.59 225.02,91.59 "/>
   <polygon class="fil13" points="224.85,92.43 223.93,93.45 "/>
   <polygon class="fil10" points="217.01,107.83 216.31,109.26 "/>
   <polygon class="fil11" points="380.03,33 378.36,32.4 "/>
   <polygon class="fil10" points="214.06,115.55 213.44,117.15 "/>
   <polygon class="fil6" points="325.41,27.34 320.89,28.07 "/>
   <polygon class="fil10" points="213.09,118.48 212.52,120.22 "/>
   <polygon class="fil6" points="360.03,28.43 354.7,27.15 "/>
   <polygon class="fil10" points="211.23,123.5 212.25,121.7 "/>
   <polygon class="fil6" points="210.27,127.38 211.22,125.46 "/>
   <polygon class="fil10" points="209.38,131.47 210.19,129.21 "/>
   <polygon class="fil12" points="316.54,28.3 313.74,29.32 "/>
   <polygon class="fil10" points="208.48,136.51 209.15,133.89 "/>
   <polygon class="fil6" points="207.27,143.79 208.66,139.61 "/>
   <polygon class="fil12" points="215.1,112.78 214.47,114.33 "/>
   <polygon class="fil6" points="365.27,29.16 362.85,28.38 "/>
   <polygon class="fil6" points="208.34,178.28 207.39,174.32 "/>
   <polygon class="fil6" points="209.32,184.1 208.34,181.21 "/>
   <polygon class="fil12" points="210.26,189.01 209.49,186.69 "/>
   <polygon class="fil10" points="211.26,192.83 210.33,190.88 "/>
   <polygon class="fil12" points="212.38,196.38 211.35,194.68 "/>
   <polygon class="fil10" points="213.25,199.53 212.17,197.88 "/>
   <polygon class="fil6" points="215.99,207.67 215.3,206.23 "/>
   <polygon class="fil10" points="217.96,212.54 217.23,211.18 "/>
   <polygon class="fil6" points="223.87,224.01 222.98,222.99 "/>
   <polygon class="fil10" points="311.64,29.28 309.43,30.1 "/>
   <polygon class="fil6" points="369.62,30.44 367.38,29.1 "/>
   <polygon class="fil11" points="229.89,233.53 228.87,232.71 "/>
   <polygon class="fil10" points="307.63,30.19 305.6,31.1 "/>
   <polygon class="fil10" points="373.46,30.93 371.58,30.39 "/>
   <polygon class="fil6" points="235.68,241.38 234.55,240.62 "/>
   <polygon class="fil11" points="303.79,31.19 302.04,32.21 "/>
   <polygon class="fil12" points="239.56,246.28 238.53,245.39 "/>
   <polygon class="fil6" points="240.63,247.16 239.56,246.28 "/>
   <polygon class="fil10" points="376.73,32.16 374.98,31.12 "/>
   <polygon class="fil10" points="300.69,32.08 299.01,33.14 "/>
   <polygon class="fil6" points="243.46,68.2 242.46,69.16 "/>
   <polygon class="fil10" points="297.67,32.99 296.1,34.12 "/>
   <polygon class="fil11" points="382.88,33.99 381.28,33.37 "/>
   <polygon class="fil6" points="292.41,35.22 290.94,35.92 "/>
   <polygon class="fil6" points="387.88,35.83 386.36,35.16 "/>
   <polygon class="fil10" points="287.42,37.15 286.03,37.86 "/>
   <polygon class="fil6" points="392.6,37.84 391.22,37.11 "/>
   <polygon class="fil10" points="273.59,43.86 272.57,44.76 "/>
   <polygon class="fil6" points="407.9,45.79 406.86,44.86 "/>
   <polygon class="fil10" points="268.69,46.76 267.75,47.71 "/>
   <polygon class="fil6" points="265.78,48.67 264.88,49.67 "/>
   <polygon class="fil11" points="224.95,225.83 224.06,224.84 "/>
  </g>
 </g>
</svg>
