<?xml version="1.0" encoding="UTF-8" standalone="no"?>
<!-- Created with Inkscape (http://www.inkscape.org/) -->

<svg
   width="131.06874mm"
   height="122.39544mm"
   viewBox="0 0 131.06874 122.39544"
   version="1.1"
   id="svg5"
   xml:space="preserve"
   inkscape:version="1.2 (1:1.2.1+202207142221+cd75a1ee6d)"
   sodipodi:docname="React-Helmet.svg"
   xmlns:inkscape="http://www.inkscape.org/namespaces/inkscape"
   xmlns:sodipodi="http://sodipodi.sourceforge.net/DTD/sodipodi-0.dtd"
   xmlns="http://www.w3.org/2000/svg"
   xmlns:svg="http://www.w3.org/2000/svg"><sodipodi:namedview
     id="namedview7"
     pagecolor="#ffffff"
     bordercolor="#666666"
     borderopacity="1.0"
     inkscape:showpageshadow="2"
     inkscape:pageopacity="0.0"
     inkscape:pagecheckerboard="0"
     inkscape:deskcolor="#d1d1d1"
     inkscape:document-units="mm"
     showgrid="false"
     inkscape:zoom="0.88907127"
     inkscape:cx="288.50331"
     inkscape:cy="439.22238"
     inkscape:window-width="2560"
     inkscape:window-height="1361"
     inkscape:window-x="1920"
     inkscape:window-y="0"
     inkscape:window-maximized="1"
     inkscape:current-layer="layer1" /><defs
     id="defs2"><filter
       id="filter7229"
       inkscape:collect="always"
       color-interpolation-filters="sRGB"
       x="-0.024218987"
       y="-0.023784941"
       width="1.048438"
       height="1.0475699"><feGaussianBlur
         id="feGaussianBlur7231"
         stdDeviation="1.6250746"
         inkscape:collect="always" /></filter><radialGradient
       id="radialGradient9444"
       gradientUnits="userSpaceOnUse"
       cy="-599.07001"
       cx="-634.47998"
       gradientTransform="matrix(-0.60995193,-0.80436879,-1.4787678,0.94466486,-1194.2578,173.77885)"
       r="32.341999"
       inkscape:collect="always"><stop
         id="stop3608"
         style="stop-color:#1a1a1a"
         offset="0" /><stop
         id="stop3610"
         style="stop-color:#333"
         offset="1" /></radialGradient><radialGradient
       id="radialGradient9446"
       gradientUnits="userSpaceOnUse"
       cy="-629.23999"
       cx="-617.06"
       gradientTransform="matrix(-1.7352562,0.06622487,0.06057755,1.3371946,-973.91362,980.24964)"
       r="58.411999"
       inkscape:collect="always"><stop
         id="stop3594"
         style="stop-color:#e0e0e0;stop-opacity:1;"
         offset="0" /><stop
         id="stop3596"
         style="stop-color:#fdffff;stop-opacity:1;"
         offset="1" /></radialGradient><radialGradient
       id="radialGradient9448"
       gradientUnits="userSpaceOnUse"
       cy="-564.90997"
       cx="-619.16998"
       gradientTransform="matrix(-1.0043728,-0.33269903,-0.15927282,0.405063,-649.56132,163.53988)"
       r="50.750999"
       inkscape:collect="always"><stop
         id="stop3631"
         style="stop-color:#4d4d4d"
         offset="0" /><stop
         id="stop3629"
         style="stop-color:black"
         offset="1" /></radialGradient><linearGradient
       id="linearGradient9450"
       y2="-615.23999"
       gradientUnits="userSpaceOnUse"
       x2="-637.34003"
       gradientTransform="matrix(-1.0677962,0,0,0.98007732,-598.84585,707.28148)"
       y1="-607.03998"
       x1="-650.45001"
       inkscape:collect="always"><stop
         id="stop3642"
         style="stop-color:black"
         offset="0" /><stop
         id="stop3644"
         style="stop-color:#4d4d4d"
         offset="1" /></linearGradient><linearGradient
       id="linearGradient9452"
       y2="-615.33002"
       gradientUnits="userSpaceOnUse"
       x2="-608.15997"
       gradientTransform="matrix(-1.0677962,0,0,0.98007732,-598.84585,707.28148)"
       y1="-615.33002"
       x1="-691.46997"
       inkscape:collect="always"><stop
         id="stop3652"
         style="stop-color:#999"
         offset="0" /><stop
         id="stop3662"
         style="stop-color:#d0d0d0"
         offset=".13668" /><stop
         id="stop3660"
         style="stop-color:white"
         offset=".25" /><stop
         id="stop3658"
         style="stop-color:white;stop-opacity:.49804"
         offset=".40155" /><stop
         id="stop3654"
         style="stop-color:white"
         offset="1" /></linearGradient><radialGradient
       id="radialGradient9454"
       gradientUnits="userSpaceOnUse"
       cy="-638.02002"
       cx="-731.37"
       r="2.8996"
       inkscape:collect="always"
       gradientTransform="matrix(1.0677962,0,0,0.98007732,724.11684,711.65639)"><stop
         id="stop10043"
         style="stop-color:white"
         offset="0" /><stop
         id="stop10045"
         style="stop-color:#ccc"
         offset="1" /></radialGradient><linearGradient
       id="linearGradient9456"
       y2="-1083.1"
       gradientUnits="userSpaceOnUse"
       x2="-266.97"
       gradientTransform="translate(-358.34)"
       y1="-1229"
       x1="-143.06"
       inkscape:collect="always"><stop
         id="stop4449"
         style="stop-color:white"
         offset="0" /><stop
         id="stop4451"
         style="stop-color:white;stop-opacity:0"
         offset="1" /></linearGradient><filter
       id="filter4463"
       inkscape:collect="always"
       color-interpolation-filters="sRGB"
       x="-0.016434589"
       y="-0.044471732"
       width="1.0328692"
       height="1.0889435"><feGaussianBlur
         id="feGaussianBlur4465"
         stdDeviation="0.85012999"
         inkscape:collect="always" /></filter></defs><g
     inkscape:label="Calque 1"
     inkscape:groupmode="layer"
     id="layer1"
     transform="translate(-11.414456,-32.367415)"><g
       id="g10266"><path
         id="path7145"
         style="opacity:0.5;fill:#000000;filter:url(#filter7229)"
         inkscape:connector-curvature="0"
         d="m 521.34,-561.5 c -2.2953,0.0375 -4.5597,0.17201 -6.8125,0.375 -18.459,1.6633 -37.987,8.2254 -51.562,20.844 -7.2589,6.7471 -13.513,21.801 -17.062,31.656 l 29.781,5.1875 -1.27,45.43 -40.16,30 c 9.1e-4,0.0703 0,0.65625 0,0.65625 0,0 1.3517,0.20081 2.125,0.3125 0.26429,2.5872 0.68474,5.2272 1.4375,7.0312 2.7418,6.5713 11.449,15.702 14.906,19.188 -0.0619,0.01 -0.12562,0.0218 -0.1875,0.0312 1.4458,1.4796 2.4375,2.4062 2.4375,2.4062 l 0.875,0.84375 1.25,-0.125 c 0,0 12.351,-1.0541 27.531,-3.2188 15.18,-2.1647 33.154,-5.3672 45,-9.8125 23.313,-8.7485 47.782,-14.952 61.469,-37.625 0.50649,-0.8533 0.78621,-4.41 1.0625,-5.1875 -0.25233,0.281 -0.49483,0.56679 -0.75,0.84375 3.007,-9.7814 5.277,-44.258 2.875,-56.312 -3.4775,-17.452 -17.426,-32.886 -32.5,-42.344 -11.07,-6.9458 -24.786,-10.046 -38.125,-10.188 -0.76957,-0.008 -1.5474,-0.0125 -2.3125,0 z"
         transform="matrix(-0.77629681,0,0,0.71252442,476.56588,435.2397)" /><path
         id="path3604"
         sodipodi:nodetypes="cacccccc"
         style="fill:url(#radialGradient9444);stroke-width:0.743727"
         inkscape:connector-curvature="0"
         d="m 138.08495,127.35076 c 0,0 -1.86878,-7.48792 -4.28687,-10.49263 -4.17018,-5.18141 -16.67097,-11.8044 -16.67097,-11.8044 l -4.28687,-22.282061 -43.821175,7.854873 8.573424,38.472748 46.202861,6.12066 z" /><path
         id="path3590"
         sodipodi:nodetypes="cassaaacaaaaaccac"
         style="fill:url(#radialGradient9446);stroke-width:0.743727"
         inkscape:connector-curvature="0"
         d="m 123.79332,150.83557 c 0,0 -38.059494,-3.09471 -55.729566,-9.18088 C 49.861147,135.38504 28.097665,129.38858 18.050056,114.11134 15.43215,110.1309 13.165752,81.912365 15.192119,72.578296 17.891692,60.14332 28.735393,49.150493 40.437292,42.41215 c 10.577043,-6.091158 24.240643,-8.023738 36.676917,-6.995066 14.329665,1.185142 29.472111,5.873623 40.011111,14.864684 8.68599,7.410254 15.71846,29.291881 15.71846,29.291881 0,0 -15.54379,4.133136 -23.33936,6.120654 -9.9824,2.544994 -22.780434,0.618897 -30.008528,7.432345 -3.304311,3.114937 -3.965485,8.370022 -3.334197,12.678652 0.700779,4.78368 3.610947,9.55638 7.621139,12.67866 6.165429,4.8005 14.95924,5.87256 22.863496,7.43235 9.34584,1.84415 28.57937,2.18595 28.57937,2.18595 l 2.85793,-3.06036 c 0,0 0.11049,7.54349 -1.42893,10.93012 -2.65447,5.83928 -12.86091,14.86468 -12.86091,14.86468 z" /><path
         id="path3614"
         sodipodi:nodetypes="ccccccsscc"
         style="color:#000000;text-indent:0;text-transform:none;fill:url(#radialGradient9448);stroke-width:0.743727"
         inkscape:connector-curvature="0"
         d="m 16.850677,112.10274 c 13.879411,14.18636 33.36679,21.11138 50.05329,26.83153 19.691543,5.02408 39.909413,8.12776 58.326283,10.71922 -1.12237,1.05425 -1.86855,1.71504 -1.86855,1.71504 l -0.70071,0.61253 -0.96766,-0.0918 c 0,0 -9.57096,-0.75456 -21.35514,-2.29695 -11.784187,-1.5424 -25.739675,-3.81542 -34.93569,-6.98281 -18.097807,-6.23352 -37.093014,-10.65936 -47.717412,-26.81443 -0.393187,-0.608 -0.619703,-3.13853 -0.834208,-3.69252 z" /><path
         id="path3624"
         sodipodi:nodetypes="ccccssscssccsscccc"
         style="color:#000000;text-indent:0;text-transform:none;fill:url(#linearGradient9450);stroke-width:0.743727"
         inkscape:connector-curvature="0"
         d="m 133.15546,78.614092 c 0.0694,0.209766 0.20021,0.551281 0.20021,0.551281 l 0.60062,1.868237 -2.06876,0.551281 c 0,0 -15.53059,4.129933 -23.35721,6.125217 -5.35179,1.364483 -11.128219,1.50713 -16.316993,2.174482 -5.188145,0.667345 -9.64238,1.820856 -12.746014,4.747119 -2.566282,2.419166 -3.310597,7.135221 -2.736133,11.056241 0.621649,4.24401 3.293356,8.66644 6.873717,11.45454 5.521178,4.29888 13.929871,5.39909 21.956003,6.98281 8.41505,1.66047 29.97049,1.61309 31.57277,1.6495 1.50741,-2.01245 0.86658,3.47833 0.74192,4.22933 -2.56178,-0.0442 -24.09703,-0.22053 -33.21619,-2.01993 -7.783147,-1.53571 -17.014874,-2.56887 -23.824548,-7.87127 -4.440181,-3.45716 -7.561983,-8.58092 -8.342084,-13.90419 -0.687954,-4.69654 -0.104637,-10.491926 3.937375,-14.302509 4.123457,-3.887172 9.668777,-5.201714 15.182035,-5.910889 14.237292,-1.239936 29.167802,-4.733224 41.542752,-7.381037 z" /><path
         id="path3648"
         sodipodi:nodetypes="caasccaaacac"
         style="opacity:0.4;fill:url(#linearGradient9452);stroke:#ffffff;stroke-width:1.023"
         inkscape:connector-curvature="0"
         d="m 133.54362,76.619022 c 0,0 -16.79674,4.770495 -25.42916,6.18279 -9.436668,1.543893 -19.068954,3.109386 -28.629053,2.473173 -8.527618,-0.567603 -17.943323,-4.281706 -24.923783,-5.564532 -1.476982,-0.271472 -4.041712,1.854839 -4.041712,1.854839 l 2.020856,31.532058 c 0,0 19.504457,8.05295 29.639014,11.12892 9.462283,2.87204 19.100778,5.5024 28.965958,6.80112 6.44955,0.84904 13.02471,0.85859 19.53473,0.61826 2.93604,-0.10838 8.75741,-0.92743 8.75741,-0.92743 0,0 0.285,-19.63004 -0.84205,-29.36812 -0.96525,-8.34081 -5.05214,-24.731007 -5.05214,-24.731007 z" /><ellipse
         id="path3664"
         style="color:#000000;fill:url(#radialGradient9454);stroke-width:1.023"
         transform="scale(-1,1)"
         cx="-56.83886"
         cy="86.350731"
         rx="3.0961952"
         ry="2.8418443" /><path
         id="path4438"
         style="color:#000000;fill:url(#linearGradient9456);filter:url(#filter4463)"
         inkscape:connector-curvature="0"
         d="m -583.43,-1158 c -21.7,1.4247 -45.646,8.0848 -58.846,26.752 -0.96456,2.6202 -5.5607,6.8727 -3.1542,8.5916 38.108,14.691 82.865,13.941 120,-3.4375 3.7648,-1.0964 4.7121,-3.0062 1.5625,-5.5625 -14.224,-17.865 -36.723,-28.002 -59.562,-26.344 z"
         transform="matrix(-0.77629681,0,0,0.71252442,-379.53423,863.17472)" /><g
         id="g6858"
         transform="matrix(2.8543601,-0.53543484,0.33609485,1.5094123,63.002214,55.315205)"
         style="stroke:#00aad4;stroke-opacity:1"><circle
           cx="0"
           cy="0"
           r="2.05"
           fill="#61dafb"
           id="circle6837"
           style="stroke:#00aad4;stroke-opacity:1" /><g
           stroke="#61dafb"
           stroke-width="1"
           fill="none"
           id="g6845"
           style="stroke:#00aad4;stroke-opacity:1"><ellipse
             rx="11"
             ry="4.1999998"
             id="ellipse6839"
             cx="0"
             cy="0"
             style="stroke:#00aad4;stroke-opacity:1" /><ellipse
             rx="11"
             ry="4.1999998"
             transform="rotate(60)"
             id="ellipse6841"
             cx="0"
             cy="0"
             style="stroke:#00aad4;stroke-opacity:1" /><ellipse
             rx="11"
             ry="4.1999998"
             transform="rotate(120)"
             id="ellipse6843"
             cx="0"
             cy="0"
             style="stroke:#00aad4;stroke-opacity:1" /></g></g></g></g></svg>
