<?xml version="1.0" encoding="UTF-8" standalone="no"?>
<!-- Created with Inkscape (http://www.inkscape.org/) -->

<svg
   width="40"
   height="35.789474"
   viewBox="0 0 190 170"
   version="1.1"
   aria-hidden="true"
   id="svg12"
   sodipodi:docname="ReactQuery.svg"
   inkscape:version="1.2 (1:1.2+202206011327+fc4e4096c5)"
   xmlns:inkscape="http://www.inkscape.org/namespaces/inkscape"
   xmlns:sodipodi="http://sodipodi.sourceforge.net/DTD/sodipodi-0.dtd"
   xmlns="http://www.w3.org/2000/svg"
   xmlns:svg="http://www.w3.org/2000/svg">
  <defs
     id="defs16" />
  <sodipodi:namedview
     id="namedview14"
     pagecolor="#ffffff"
     bordercolor="#666666"
     borderopacity="1.0"
     inkscape:showpageshadow="2"
     inkscape:pageopacity="0.0"
     inkscape:pagecheckerboard="0"
     inkscape:deskcolor="#d1d1d1"
     showgrid="false"
     inkscape:zoom="24.95"
     inkscape:cx="20"
     inkscape:cy="17.895792"
     inkscape:window-width="2560"
     inkscape:window-height="1361"
     inkscape:window-x="1920"
     inkscape:window-y="0"
     inkscape:window-maximized="1"
     inkscape:current-layer="svg12" />
  <path
     d="m 150.27603,51.343624 c 3.09275,-14.980747 3.75646,-26.470852 1.75734,-34.814269 -1.18897,-4.962187 -3.36268,-9.01027 -6.66798,-11.930892 -3.48953,-3.083415 -7.90142,-4.596451 -12.85865,-4.596451 -8.17794,0 -16.775,3.725309 -25.96247,10.802414 -3.74739,2.88662 -7.63671,6.365985 -11.67592,10.440049 -0.32149,-0.413449 -0.68489,-0.80343 -1.08978,-1.16386 C 82.35902,9.914972 72.74476,3.598927 64.52159,1.163651 59.6321,-0.284364 55.04147,-0.422318 50.86106,0.983031 46.44837,2.466468 42.93234,5.532949 40.45169,9.828109 c -4.09398,7.088565 -5.17361,16.402989 -3.64728,27.903915 0.62214,4.687887 1.68574,9.794359 3.1885,15.327291 -0.56695,0.06839 -1.13533,0.193966 -1.69795,0.380215 -14.48889,4.796338 -24.74854,9.954216 -30.95998,15.848754 -3.69565,3.507099 -6.10895,7.411559 -6.98134,11.733536 -0.92082,4.561855 -0.023,9.13751 2.45481,13.42948 4.08634,7.07831 11.59991,12.66091 22.30396,17.08273 4.29804,1.77551 9.16101,3.38353 14.59433,4.82972 -0.24792,0.55917 -0.44026,1.15301 -0.56888,1.77601 -3.09275,14.98074 -3.75646,26.47085 -1.75734,34.81427 1.18897,4.96218 3.36268,9.01027 6.66798,11.93089 3.48953,3.08341 7.90142,4.59645 12.85865,4.59645 8.17794,0 16.775,-3.72531 25.96247,-10.80241 3.78728,-2.91735 7.71951,-6.44012 11.80495,-10.57034 0.42036,0.65685 0.93646,1.26739 1.54686,1.81076 11.41955,10.16565 21.03382,16.48169 29.25698,18.91697 4.88949,1.44801 9.48012,1.58597 13.66053,0.18062 4.41269,-1.48344 7.92872,-4.54992 10.40937,-8.84508 4.09398,-7.08856 5.17361,-16.40299 3.64729,-27.90391 -0.64464,-4.85735 -1.76322,-10.16408 -3.35319,-15.92897 0.62149,-0.0629 1.24552,-0.19419 1.86263,-0.39848 14.48889,-4.79634 24.74854,-9.95422 30.95998,-15.84876 3.69565,-3.50709 6.10895,-7.41155 6.98135,-11.733532 0.92081,-4.561854 0.023,-9.137511 -2.45482,-13.429476 -4.08634,-7.078318 -11.59991,-12.660914 -22.30396,-17.082735 -4.4261,-1.828412 -9.45131,-3.479205 -15.08153,-4.95856 0.2006,-0.49055 0.359,-1.006344 0.46997,-1.543843 z"
     fill="#002c4b"
     fill-rule="nonzero"
     id="path2"
     style="stroke:none;stroke-width:1" />
  <path
     d="m 80.39688,54 h 29.2113 c 1.79107,0 3.44534,0.958025 4.33675,2.511517 l 14.63221,25.5 c 0.88432,1.541141 0.88432,3.435825 0,4.976966 L 113.94493,112.48848 C 113.05352,114.04197 111.39925,115 109.60818,115 h -29.2113 c -1.79107,0 -3.44534,-0.95803 -4.33675,-2.51152 L 61.427921,86.988483 c -0.884325,-1.541141 -0.884325,-3.435825 0,-4.976966 l 14.632209,-25.5 C 76.95154,54.958025 78.60581,54 80.39688,54 Z m 25.59095,6.276527 c 1.79202,0 3.44701,0.959029 4.33807,2.513813 l 11.01714,19.223473 c 0.88257,1.539969 0.88257,3.432405 0,4.972374 L 110.3259,106.20966 c -0.89106,1.55478 -2.54605,2.51381 -4.33807,2.51381 h -21.9706 c -1.79202,0 -3.44701,-0.95903 -4.33807,-2.51381 L 68.66202,86.986187 c -0.88257,-1.539969 -0.88257,-3.432405 0,-4.972374 L 79.67916,62.79034 c 0.89106,-1.554784 2.54605,-2.513813 4.33807,-2.513813 z m -3.90718,6.864952 H 87.92441 c -1.79018,0 -3.44377,0.957078 -4.33551,2.50935 v 0 l -7.09968,12.35852 c -0.88599,1.542247 -0.88599,3.439055 0,4.981302 v 0 L 83.5889,99.34917 c 0.89174,1.55227 2.54533,2.50935 4.33551,2.50935 v 0 h 14.15624 c 1.79018,0 3.44377,-0.95708 4.33551,-2.50935 v 0 l 7.09968,-12.358519 c 0.88599,-1.542247 0.88599,-3.439055 0,-4.981302 v 0 l -7.09968,-12.35852 c -0.89174,-1.552272 -2.54533,-2.50935 -4.33551,-2.50935 z m -3.76146,6.57074 c 1.78884,0 3.4414,0.955656 4.33364,2.506097 l 3.33072,5.787781 c 0.88848,1.543903 0.88848,3.443903 0,4.987806 l -3.33072,5.787777 c -0.89224,1.55045 -2.5448,2.5061 -4.33364,2.5061 h -6.63332 c -1.78884,0 -3.4414,-0.95565 -4.33364,-2.5061 L 84.02151,86.993903 C 83.13303,85.45 83.13303,83.55 84.02151,82.006097 l 3.33072,-5.787781 c 0.89224,-1.550441 2.5448,-2.506097 4.33364,-2.506097 z m -3.3154,6.472669 c -1.5445,0 -2.96941,0.822395 -3.74078,2.157556 -0.77128,1.334979 -0.77128,2.980133 0,4.315112 0.77137,1.335161 2.19628,2.157556 3.73826,2.157556 v 0 c 1.5445,0 2.96941,-0.822395 3.74078,-2.157556 0.77128,-1.334979 0.77128,-2.980133 0,-4.315112 -0.77137,-1.335161 -2.19628,-2.157556 -3.73826,-2.157556 z M 60,84.500965 h 7.76776"
     fill="#ffd94c"
     id="path4"
     style="fill-rule:evenodd;stroke:none;stroke-width:1" />
  <path
     d="m 54.860173,98.35776 c 1.311349,-0.74947 2.975852,-0.28316 3.717769,1.04154 v 0 l 0.474642,0.84422 c 3.803755,6.73947 7.766428,13.13666 11.888016,19.19155 4.86728,7.15036 10.34124,14.38904 16.42188,21.71604 0.9544,1.15003 0.82246,2.86007 -0.29679,3.84683 v 0 l -0.61148,0.53668 c -20.107671,17.56869 -33.176391,21.07793 -39.206162,10.52772 -5.897983,-10.31962 -3.763556,-29.07945 6.403279,-56.27949 0.225491,-0.60327 0.653259,-1.10756 1.208846,-1.42509 z m 85.674007,20.68374 c 1.45195,-0.25632 2.84132,0.70064 3.12545,2.15274 v 0 l 0.15318,0.79214 C 148.78236,147.99546 145.28335,161 133.31576,161 121.60974,161 106.70872,149.90901 88.6127,127.72702 88.21135,127.23505 87.99457,126.61737 88,125.98151 c 0.0132,-1.50082 1.23579,-2.70686 2.73092,-2.69375 v 0 l 0.95373,0.007 c 7.62105,0.0415 15.02974,-0.22294 22.22607,-0.79321 8.49832,-0.67344 17.3728,-1.82671 26.62346,-3.45982 z m 6.87455,-55.229534 c 0.52341,-1.409276 2.09966,-2.148512 3.54585,-1.662954 v 0 l 0.78797,0.266473 c 25.84121,8.802437 35.65981,18.476196 29.45578,29.021275 -6.06843,10.31461 -23.71398,17.82358 -52.93667,22.52692 -0.64813,0.10431 -1.31302,-0.0177 -1.87893,-0.34484 -1.33571,-0.77211 -1.78068,-2.46063 -0.99388,-3.7714 v 0 l 0.50048,-0.83694 c 3.98785,-6.69417 7.59203,-13.35624 10.81252,-19.986204 3.80316,-7.829478 7.37212,-16.233588 10.70688,-25.21233 z M 61.73834,56.036322 c 0.648131,-0.104316 1.313016,0.01771 1.878925,0.344835 1.33571,0.772114 1.780689,2.460629 0.993887,3.771405 v 0 l -0.50048,0.836938 c -3.987855,6.69417 -7.59203,13.356238 -10.812526,19.986204 -3.803156,7.829478 -7.372113,16.233586 -10.706872,25.212326 -0.523413,1.40928 -2.09966,2.14852 -3.545855,1.66296 v 0 l -0.787972,-0.26648 C 12.416237,98.78208 2.597644,89.108319 8.801668,78.563239 14.870096,68.248633 32.515653,60.739661 61.73834,56.036322 Z m 41.80745,-31.570947 c 20.10767,-17.568689 33.17639,-21.077927 39.20616,-10.527716 5.89798,10.319624 3.76356,29.079453 -6.40328,56.279488 -0.22549,0.603271 -0.65326,1.107562 -1.20884,1.425095 -1.31135,0.749472 -2.97586,0.283157 -3.71777,-1.041545 v 0 L 130.94742,69.75648 C 127.14366,63.017006 123.18099,56.619824 119.0594,50.564932 114.19212,43.414573 108.71816,36.17589 102.63752,28.848885 c -0.9544,-1.150025 -0.82246,-2.860061 0.29679,-3.846822 v 0 z M 57.684236,8 C 69.39025,8 84.29128,19.090993 102.3873,41.272978 c 0.40135,0.491975 0.61813,1.109651 0.6127,1.745513 -0.0132,1.500823 -1.23579,2.706858 -2.73092,2.693753 v 0 l -0.95373,-0.0068 c -7.62105,-0.04146 -15.02974,0.22294 -22.22607,0.793208 -8.49832,0.673443 -17.372803,1.826716 -26.623457,3.459819 -1.451954,0.256327 -2.841319,-0.700634 -3.125453,-2.152738 v 0 L 47.187185,47.013624 C 42.217635,21.004541 45.716652,8 57.684236,8 Z"
     fill="#ff4154"
     id="path6"
     style="fill-rule:evenodd;stroke:none;stroke-width:1" />
</svg>
